<svg xmlns="http://www.w3.org/2000/svg" viewBox="0 0 200 300" width="200" height="300" shape-rendering="geometricPrecision"><rect width="200" height="300" fill="#292f46"/><path d="M4 -0.5L3.5 1L7 3.5L13 3.5L14.5 2L14 -0.5L4 -0.5ZM154 -0.5L152.5 2L152.5 7L151.5 8L151.5 10L153.5 12L153.5 16L159 19.5L165 19.5L167 18.5L167.5 29L169.5 32L169.5 34L174 38.5L180 37.5L183.5 34L183.5 23L182.5 21L181 19.5L178 19.5L175 17.5L171 17.5L169.5 16L171.5 13L171.5 10L170.5 9L170.5 4L167 -0.5L154 -0.5ZM72 2.5L67.5 7L67.5 12L66.5 14L68.5 17L68.5 20L70 21.5L74 23.5L79 23.5L81 21.5L83.5 21L83.5 19L85.5 16L84.5 11L83.5 8L79 3.5L72 2.5ZM157.5 5L161 4.5L164.5 7L165.5 11L163 13.5L159 12.5L156.5 10L156.5 6L157.5 5ZM72.5 9L77 8.5L79.5 11L79.5 16L78 17.5L75 17.5L71.5 14L71.5 10L72.5 9ZM0 12.5L-0.5 41L5 47.5L11 47.5L14.5 44L14.5 34L9 28.5L4 27.5L1.5 25L3.5 23L3.5 20L2.5 19L2.5 16L0 12.5ZM137 12.5L132.5 18L132.5 21L130.5 23L130.5 25L132.5 27L132.5 32L136 35.5L142 35.5L145.5 32L148.5 26L148.5 19L143 12.5L137 12.5ZM198 12.5L191.5 20L192.5 26L196 29.5L199.5 29L199.5 26L196.5 23L196.5 21L199.5 17L199.5 13L198 12.5ZM112 15.5L106.5 21L104.5 25L105.5 31L109 35.5L115 35.5L117 34.5L118.5 33L118.5 31L121.5 28L121.5 22L120.5 20L116 15.5L112 15.5ZM54 18.5L49.5 23L49.5 25L47.5 28L47.5 31L49.5 33L48.5 36L53 40.5L57 40.5L60.5 37L63.5 31L64.5 25L59 18.5L54 18.5ZM138.5 21L142 20.5L143.5 22L143.5 26L141 28.5L139 28.5L136.5 25L136.5 23L138.5 21ZM85 21.5L84.5 23L81.5 25L81.5 33L83.5 35L83.5 38L88 42.5L93 42.5L96.5 39L97.5 36L96.5 27L91 22.5L85 21.5ZM112.5 22L115 21.5L116.5 23L116.5 28L114 30.5L111 30.5L109.5 29L109.5 25L112.5 22ZM29 22.5L21.5 31L22.5 37L27 41.5L33 40.5L37.5 35L37.5 31L38.5 30L37.5 27L33 22.5L29 22.5ZM54.5 25L57 24.5L59.5 27L59.5 31L57 33.5L54 33.5L52.5 32L52.5 27L54.5 25ZM173.5 25L177 24.5L180.5 28L180.5 31L179 32.5L175 32.5L173.5 31L172.5 28L173.5 25ZM29.5 28L32 27.5L33.5 29L33.5 33L30 36.5L28 36.5L26.5 35L26.5 32L29.5 28ZM87.5 29L91 28.5L93.5 31L93.5 35L92 36.5L89 36.5L87.5 35L86.5 32L87.5 29ZM5.5 35L8 34.5L11.5 37L11.5 40L9 42.5L8 42.5L4.5 38L5.5 35ZM199 40.5L196 42.5L193 42.5L189.5 46L187.5 50L186.5 57L190 62.5L199.5 62L199 54.5L196 56.5L193 56.5L191.5 55L192.5 50L196 46.5L199.5 46L199 40.5ZM108 47.5L105 48.5L101.5 52L99.5 56L100.5 59L98.5 63L101.5 66L101.5 68L103 69.5L111 69.5L115.5 65L117.5 59L117.5 57L115.5 54L116.5 51L112 47.5L108 47.5ZM27 51.5L25 53.5L21 54.5L17.5 59L16.5 68L18.5 71L11 73.5L7.5 77L5.5 81L6.5 90L11 93.5L15 93.5L20.5 86L21.5 81L19.5 74L21 72.5L23 73.5L29 72.5L31 71.5L33.5 68L33.5 64L34.5 63L33.5 55L27 51.5ZM108.5 54L111 53.5L112.5 55L112.5 58L109 62.5L106 63.5L104.5 62L104.5 59L108.5 54ZM25.5 58L28 57.5L29.5 59L29.5 63L27 66.5L23 66.5L21.5 64L25.5 58ZM130 60.5L129 61.5L126 61.5L122.5 65L121.5 72L122.5 73L122.5 76L125.5 79L125.5 81L127 82.5L129 83.5L134 83.5L138.5 78L137.5 74L139.5 72L139.5 70L136.5 65L132 60.5L130 60.5ZM155 61.5L153 62.5L148.5 68L149.5 74L155 79.5L161 80.5L163 79.5L166.5 75L166.5 68L161 62.5L155 61.5ZM184 62.5L177.5 68L175.5 72L176.5 81L180 83.5L184 83.5L190.5 79L191.5 71L189.5 69L189.5 66L186 62.5L184 62.5ZM48 64.5L47 65.5L43 65.5L39.5 69L38.5 76L42.5 84L47 87.5L50 87.5L54.5 82L54.5 78L56.5 75L54.5 73L53.5 69L48 64.5ZM70 66.5L68 67.5L65.5 71L65.5 79L71 85.5L77 86.5L80.5 82L80.5 77L81.5 75L74 66.5L70 66.5ZM155.5 67L157 66.5L159 67.5L162.5 71L162.5 73L160 75.5L157 75.5L153.5 72L153.5 70L155.5 67ZM128.5 68L131 67.5L133.5 70L133.5 75L132 76.5L128 76.5L126.5 75L126.5 70L128.5 68ZM183.5 69L185 68.5L186.5 70L186.5 75L183 78.5L181 78.5L179.5 77L179.5 72L183.5 69ZM96 69.5L90.5 74L89.5 77L89.5 82L90.5 83L89.5 88L93 90.5L99 90.5L102.5 86L102.5 82L104.5 80L103.5 73L99 69.5L96 69.5ZM45.5 72L48 71.5L50.5 74L51.5 78L49 80.5L46 80.5L43.5 77L43.5 74L45.5 72ZM70.5 72L72 71.5L76.5 75L76.5 80L75 81.5L72 80.5L69.5 78L69.5 73L70.5 72ZM95.5 76L98 75.5L99.5 77L99.5 82L96 85.5L94 85.5L92.5 84L92.5 80L95.5 76ZM12.5 79L15 78.5L16.5 80L16.5 84L14 87.5L11 87.5L9.5 86L10.5 81L12.5 79ZM162 91.5L157.5 95L157.5 100L156.5 102L158.5 105L158.5 108L162 111.5L164 112.5L169 112.5L174.5 108L175.5 98L172 93.5L168 91.5L162 91.5ZM162.5 98L167 97.5L170.5 100L170.5 104L168 106.5L164 105.5L161.5 103L161.5 99L162.5 98ZM76 98.5L71.5 102L72.5 104L71.5 107L72.5 114L78 118.5L83 119.5L89.5 113L89.5 106L84 99.5L82 98.5L76 98.5ZM0 102.5L-0.5 120L1 119.5L2.5 121L1.5 123L2.5 125L1.5 130L3.5 132L3.5 135L8 140.5L14 139.5L17.5 136L17.5 127L14 122.5L3.5 117L5.5 115L4.5 106L2 102.5L0 102.5ZM77.5 104L80 103.5L84.5 107L84.5 112L83 113.5L80 113.5L75.5 109L75.5 107L77.5 104ZM143 106.5L138.5 112L138.5 115L135.5 119L137 120.5L139 120.5L141.5 118L141.5 115L143 113.5L147 113.5L149.5 117L149.5 120L147 122.5L138.5 123L138.5 125L143 129.5L147 129.5L151.5 125L154.5 115L152.5 111L149 107.5L144 107.5L143 106.5ZM176 110.5L172.5 114L173.5 117L172.5 122L174.5 124L174.5 126L178 129.5L184 129.5L188.5 124L188.5 118L183 111.5L176 110.5ZM118 111.5L114.5 114L112.5 118L115 118.5L117 116.5L120 116.5L122.5 119L121.5 124L119 126.5L116 126.5L112.5 124L112.5 122L111 120.5L110 120.5L109.5 122L110.5 123L110.5 127L114 130.5L119 131.5L123.5 128L125.5 117L122 112.5L118 111.5ZM58 112.5L53.5 118L53.5 121L51.5 123L51.5 125L53.5 127L52.5 130L55.5 134L57 135.5L61 135.5L65.5 132L67.5 128L67.5 117L63 113.5L58 112.5ZM34 114.5L25.5 123L26.5 130L31 134.5L36 134.5L38 133.5L41.5 128L41.5 120L38 115.5L34 114.5ZM179.5 117L182 116.5L185.5 119L185.5 123L184 124.5L181 124.5L178.5 122L177.5 119L179.5 117ZM90 118.5L86.5 122L87.5 125L86.5 129L93 138.5L97 138.5L102.5 134L102.5 126L96 119.5L90 118.5ZM58.5 120L62 119.5L63.5 121L63.5 127L62 128.5L59 128.5L56.5 126L58.5 120ZM33.5 121L36 120.5L37.5 122L37.5 127L36 128.5L32 128.5L30.5 127L30.5 123L33.5 121ZM92.5 125L96 124.5L99.5 128L99.5 131L97 133.5L95 133.5L91.5 130L91.5 126L92.5 125ZM7.5 126L9 125.5L13.5 128L14.5 132L13 133.5L9 133.5L7.5 132L6.5 129L7.5 126ZM198 135.5L194.5 139L192.5 143L193 144.5L194 144.5L199.5 138L199.5 136L198 135.5ZM116 142.5L114.5 144L118 148.5L122.5 147L120 143.5L116 142.5ZM26 146.5L21.5 151L19.5 158L19.5 161L23 166.5L29 166.5L34 162.5L36.5 162L36.5 156L37.5 155L36.5 149L32 146.5L26 146.5ZM109 146.5L106.5 150L107 151.5L109.5 150L109 146.5ZM193 146.5L191.5 149L194.5 152L194.5 154L196 154.5L198 153.5L199 154.5L199.5 149L195 146.5L193 146.5ZM28.5 152L31 151.5L33.5 155L32.5 158L30 160.5L26 160.5L24.5 159L24.5 157L28.5 152ZM119 151.5L117.5 156L119 157.5L121 157.5L121.5 153L119 151.5ZM134 154.5L129.5 159L129.5 161L127.5 163L128 164.5L134 159.5L139 159.5L142 165.5L145.5 165L143.5 159L139 154.5L134 154.5ZM163 154.5L162 155.5L159 155.5L155.5 162L156.5 163L156.5 166L158 167.5L157.5 163L160 159.5L165 158.5L168.5 162L168.5 166L166 168.5L159.5 168L159.5 171L164 172.5L170.5 167L170.5 165L172.5 163L171.5 162L171.5 159L170 157.5L165 154.5L163 154.5ZM106 155.5L105.5 158L109 162.5L116 162.5L117.5 161L117.5 158L116 156.5L111 157.5L108 155.5L106 155.5ZM188 156.5L182.5 162L181.5 166L183 166.5L188 161.5L192 161.5L193.5 164L192.5 165L192.5 168L188 172.5L183.5 173L185 175.5L188 175.5L194.5 169L194.5 166L196.5 162L196.5 160L195 158.5L191 156.5L188 156.5ZM51 159.5L50 160.5L47 160.5L42.5 165L41.5 169L43.5 175L47 178.5L50 180.5L54 180.5L57.5 175L59.5 168L57.5 165L51 159.5ZM76 160.5L73 162.5L68.5 168L69.5 169L69.5 172L76 178.5L78 178.5L80.5 175L75 173.5L72.5 171L72.5 168L75 165.5L78 165.5L81.5 169L81.5 172L83 173.5L85.5 170L85.5 168L82 163.5L76 160.5ZM101 163.5L96.5 168L94.5 171L95 172.5L96 172.5L100 167.5L103 167.5L104 168.5L109.5 168L109 165.5L104 165.5L103 163.5L101 163.5ZM48.5 166L51 165.5L54.5 169L54.5 172L51 174.5L49 174.5L46.5 172L46.5 168L48.5 166ZM15 166.5L8.5 174L9.5 183L13 186.5L17 186.5L19.5 184L21.5 181L21.5 179L23.5 177L23.5 172L24.5 171L20 166.5L15 166.5ZM130 167.5L131.5 170L131.5 173L135 174.5L141.5 170L140 168.5L130 167.5ZM15.5 172L17 171.5L19.5 174L19.5 178L17 180.5L13 180.5L11.5 179L11.5 177L15.5 172ZM169 183.5L167.5 186L169 187.5L172 187.5L175 189.5L177.5 194L173 198.5L170 198.5L166 195.5L164.5 197L164.5 200L168 200.5L170 202.5L176 201.5L178.5 198L181.5 196L181.5 191L177 185.5L169 183.5ZM82 189.5L77.5 193L76.5 200L78.5 204L83 208.5L86 208.5L88 206.5L90 206.5L91.5 204L90 202.5L83 201.5L79.5 198L79.5 196L82 193.5L87 194.5L90.5 198L90.5 200L92 201.5L95 201.5L95.5 200L93.5 197L93.5 195L89 190.5L87 189.5L82 189.5ZM0 193.5L-0.5 198L2.5 200L3.5 205L-0.5 207L-0.5 212L4 212.5L7.5 210L7.5 208L9.5 206L7.5 203L8.5 200L5 195.5L2 193.5L0 193.5ZM148 198.5L147.5 200L149 201.5L153 202.5L155.5 205L156 207.5L158.5 207L158.5 202L156 199.5L154 198.5L148 198.5ZM124 201.5L120.5 204L122 205.5L127.5 204L127 202.5L124 201.5ZM63 202.5L57.5 208L59 210.5L61 210.5L63 208.5L67 208.5L70 211.5L73.5 211L70 204.5L63 202.5ZM183 202.5L179.5 205L178.5 213L182 218.5L190 219.5L194.5 214L192 213.5L185 215.5L182.5 213L182.5 210L184 208.5L189 208.5L193 211.5L194 211.5L194.5 210L191 205.5L189 205.5L187 203.5L183 202.5ZM37 206.5L29.5 215L30.5 220L34 223.5L39 223.5L41 222.5L43.5 220L43.5 217L44.5 216L43.5 208L42 206.5L37 206.5ZM95 207.5L91.5 211L92.5 213L91.5 216L93.5 219L93.5 221L97 222.5L102 222.5L103.5 221L102 219.5L99 219.5L95.5 215L98 212.5L102 212.5L105 214.5L105.5 212L103 209.5L101 209.5L98 207.5L95 207.5ZM117 208.5L115.5 210L116.5 215L120 217.5L120.5 216L117.5 213L118.5 209L117 208.5ZM36.5 211L40 210.5L42.5 213L41.5 217L40 218.5L35 217.5L33.5 216L33.5 214L36.5 211ZM9 211.5L5.5 215L5.5 222L7.5 224L7.5 226L12 230.5L17 230.5L21.5 227L21.5 218L15 212.5L9 211.5ZM145 212.5L144.5 215L147 218.5L149 218.5L151.5 216L150 213.5L145 212.5ZM68 214.5L66 217.5L59 215.5L57.5 219L61 222.5L67 222.5L69.5 218L69.5 215L68 214.5ZM11.5 218L15 217.5L18.5 221L18.5 223L16 225.5L14 225.5L10.5 222L10.5 219L11.5 218ZM121 229.5L120.5 232L123 234.5L125 234.5L126.5 233L124 230.5L121 229.5ZM33 234.5L30 235.5L25.5 241L24.5 248L26.5 251L22 254.5L19 254.5L13.5 261L14.5 269L18 271.5L25 271.5L26.5 270L29.5 263L27.5 254L29 252.5L35 253.5L42.5 243L41.5 237L40 235.5L33 234.5ZM31.5 239L36 238.5L38.5 241L38.5 244L34 247.5L31 247.5L29.5 246L29.5 241L31.5 239ZM110 239.5L109.5 242L113 246.5L117 246.5L119.5 245L119 242.5L115 242.5L112 239.5L110 239.5ZM142 240.5L141 241.5L137 241.5L134.5 245L142 245.5L144.5 248L144.5 250L146 251.5L148 251.5L149.5 249L147.5 247L147.5 245L142 240.5ZM168 243.5L168.5 246L172.5 250L172.5 253L174 253.5L175.5 252L174.5 248L170 243.5L168 243.5ZM57 244.5L50 247.5L47.5 252L48.5 258L54 263.5L59 263.5L63.5 258L64.5 255L63.5 250L57 244.5ZM81 245.5L80 246.5L77 246.5L75.5 248L74.5 252L76 253.5L77.5 251L82 247.5L86.5 253L90 255.5L90.5 252L89.5 250L86 246.5L81 245.5ZM191 247.5L190 250.5L194 250.5L195.5 249L195 247.5L191 247.5ZM105 248.5L99.5 255L100 256.5L106 251.5L109 253.5L111.5 252L112 249.5L105 248.5ZM198 248.5L196.5 251L199 252.5L199.5 249L198 248.5ZM54.5 250L56 249.5L60.5 253L60.5 256L58 258.5L55 258.5L51.5 256L50.5 252L54.5 250ZM135 252.5L134.5 256L137 258.5L143 258.5L144.5 257L143 255.5L139 255.5L135 252.5ZM165 254.5L163.5 256L163.5 258L167 258.5L167.5 256L165 254.5ZM0 255.5L-0.5 267L1 267.5L3.5 265L4.5 258L2 255.5L0 255.5ZM110 256.5L108.5 258L109 261.5L111.5 259L111.5 257L110 256.5ZM80 257.5L78.5 260L81 261.5L85 261.5L86.5 260L84 257.5L80 257.5ZM19.5 260L23 259.5L24.5 261L24.5 264L21 267.5L18 267.5L16.5 266L16.5 262L19.5 260ZM172 270.5L171.5 273L176 275.5L179.5 279L179.5 282L181 283.5L183 283.5L184.5 282L183.5 281L184.5 277L179 272.5L172 270.5ZM88 271.5L84 274.5L82.5 277L92 276.5L95.5 280L95.5 283L94 284.5L88 285.5L83 279.5L81.5 280L81.5 282L83.5 286L90 290.5L92 288.5L94 288.5L99.5 282L98.5 281L98.5 277L96 274.5L93 272.5L88 271.5ZM0 279.5L-0.5 285L6 284.5L8.5 288L8.5 290L6 292.5L0 291.5L-0.5 298L6 298.5L8 296.5L10 296.5L14.5 291L13.5 285L10 281.5L6 279.5L0 279.5ZM167 279.5L167.5 286L169 287.5L171 286.5L175 288.5L177.5 288L177 285.5L174 286.5L170 283.5L167 279.5ZM151 283.5L147.5 287L148 288.5L151 286.5L154 286.5L159 290.5L161.5 290L161.5 288L157 283.5L151 283.5ZM127 284.5L124.5 286L125 287.5L130 287.5L131.5 286L127 284.5ZM67 285.5L66.5 288L63.5 290L63.5 293L61.5 295L62.5 298L64 299.5L68 299.5L66.5 297L66.5 293L69 290.5L72 290.5L73.5 292L73.5 297L72.5 299L75 299.5L76.5 297L76.5 294L78.5 292L77.5 289L73 285.5L67 285.5ZM44 289.5L40 291.5L36.5 295L34.5 298L35 299.5L38 299.5L43 294.5L46 294.5L48.5 297L48 299.5L52.5 299L50.5 293L48 290.5L44 289.5ZM100 289.5L96.5 293L97 299.5L101 299.5L101.5 297L104 294.5L110.5 299L110.5 294L109 292.5L105 289.5L103 290.5L100 289.5ZM184 290.5L180.5 293L181 299.5L184 299.5L186 295.5L189 295.5L193 299.5L194.5 299L194.5 296L189 290.5L184 290.5ZM120 291.5L118.5 293L119.5 294L119.5 297L121 299.5L124 299.5L120 291.5ZM14 296.5L12 299.5L22.5 299L20 296.5L14 296.5ZM147 296.5L147 299.5L159.5 299L158 296.5L155 297.5L147 296.5Z" fill="#d8dde3" fill-rule="evenodd"/><path d="M18 -0.5L18.5 2L24 9.5L26 9.5L29 6.5L34 10.5L36 9.5L41 10.5L42 9.5L45 9.5L46.5 8L46.5 6L40 0.5L26 -0.5L25.5 3L23 4.5L21.5 2L18 -0.5ZM106 -0.5L105.5 1L107 2.5L109.5 1L109 -0.5L106 -0.5ZM115 -0.5L114.5 1L116 2.5L121 2.5L122 3.5L129 2.5L130.5 1L130 -0.5L115 -0.5ZM158 4.5L156.5 6L156.5 10L159 12.5L163 13.5L165.5 11L164.5 7L161 4.5L158 4.5ZM73 8.5L71.5 10L71.5 14L75 17.5L78 17.5L79.5 16L79.5 11L77 8.5L73 8.5ZM199 17.5L196.5 21L196.5 23L199 25.5L199 17.5ZM139 20.5L136.5 23L136.5 25L139 28.5L141 28.5L143.5 26L143.5 22L142 20.5L139 20.5ZM81 21.5L80.5 23L82 24.5L84.5 23L84 21.5L81 21.5ZM113 21.5L109.5 25L109.5 29L111 30.5L114 30.5L116.5 28L116.5 23L115 21.5L113 21.5ZM55 24.5L52.5 27L52.5 32L54 33.5L57 33.5L59.5 31L59.5 27L57 24.5L55 24.5ZM161 24.5L158 27.5L156 26.5L153 31.5L151 30.5L149.5 31L149.5 32L153.5 35L153.5 38L151 39.5L145 39.5L143 40.5L137.5 47L139 49.5L147 50.5L150 48.5L152 48.5L156 44.5L160 47.5L162 47.5L163.5 46L163.5 44L165.5 41L163 40.5L162 41.5L160.5 40L160.5 37L163.5 33L163.5 26L161 24.5ZM174 24.5L172.5 26L173.5 31L175 32.5L179 32.5L180.5 31L180.5 28L177 24.5L174 24.5ZM30 27.5L26.5 32L26.5 35L28 36.5L30 36.5L33.5 33L33.5 29L32 27.5L30 27.5ZM88 28.5L86.5 30L87.5 35L89 36.5L92 36.5L93.5 35L93.5 31L91 28.5L88 28.5ZM76 29.5L70 35.5L68 35.5L66.5 37L70.5 42L69 43.5L62 43.5L60 44.5L54.5 50L54.5 52L56 53.5L59 53.5L60 54.5L67 53.5L71 48.5L75 51.5L77 51.5L78.5 50L78.5 47L74.5 45L75.5 40L78.5 36L77.5 30L76 29.5ZM6 34.5L4.5 36L4.5 38L5.5 40L9 42.5L11.5 40L11.5 37L8 34.5L6 34.5ZM196 46.5L191.5 52L191.5 55L193 56.5L196 56.5L199.5 54L199.5 47L196 46.5ZM109 53.5L104.5 59L104.5 62L106 63.5L109 62.5L112.5 58L112.5 55L111 53.5L109 53.5ZM26 57.5L21.5 64L23 66.5L27 66.5L29.5 63L29.5 59L28 57.5L26 57.5ZM187 61.5L186.5 63L189.5 66L189.5 69L191 70.5L191.5 65L189 61.5L187 61.5ZM156 66.5L153.5 70L153.5 72L157 75.5L160 75.5L162.5 73L162.5 71L159 67.5L156 66.5ZM100 67.5L98.5 69L103 72.5L103.5 70L100 67.5ZM129 67.5L126.5 70L126.5 75L128 76.5L132 76.5L133.5 75L133.5 70L131 67.5L129 67.5ZM197 67.5L195.5 69L195.5 71L196.5 72L196.5 76L199 78.5L199.5 69L197 67.5ZM184 68.5L179.5 72L179.5 77L181 78.5L183 78.5L186.5 75L186.5 70L184 68.5ZM46 71.5L43.5 74L43.5 77L46 80.5L49 80.5L51.5 77L50.5 74L48 71.5L46 71.5ZM71 71.5L69.5 73L69.5 78L72 80.5L75 81.5L76.5 80L76.5 75L74 72.5L71 71.5ZM96 75.5L92.5 80L92.5 84L94 85.5L96 85.5L99.5 82L99.5 77L98 75.5L96 75.5ZM109 75.5L107.5 77L107.5 83L111.5 88L111.5 90L107.5 93L108.5 96L111 98.5L113 98.5L115 94.5L117 94.5L121 98.5L131 98.5L134.5 96L134.5 94L128 88.5L118 89.5L116.5 87L120.5 81L119 80.5L117 81.5L109 75.5ZM13 78.5L10.5 81L9.5 84L9.5 86L11 87.5L14 87.5L16.5 84L16.5 80L15 78.5L13 78.5ZM27 79.5L25.5 81L25.5 87L29.5 92L29.5 94L28 95.5L26 95.5L25.5 97L26.5 98L26.5 101L28 102.5L29 102.5L33 97.5L38 101.5L41 101.5L43 103.5L49 101.5L50.5 100L50.5 98L45 92.5L35 92.5L33.5 90L36.5 86L32 81.5L27 79.5ZM163 97.5L161.5 99L161.5 103L164 105.5L168 106.5L170.5 104L170.5 100L167 97.5L163 97.5ZM78 103.5L75.5 107L75.5 109L80 113.5L83 113.5L84.5 112L84.5 107L82 104.5L78 103.5ZM174 108.5L171.5 111L173 112.5L175.5 111L174 108.5ZM143 113.5L141.5 115L141.5 118L138.5 121L139 122.5L147 122.5L149.5 120L148.5 115L147 113.5L143 113.5ZM88 114.5L83.5 119L84 119.5L88.5 117L88 114.5ZM117 116.5L115 118.5L112 118.5L110.5 120L114 125.5L119 126.5L121.5 124L122.5 119L120 116.5L117 116.5ZM180 116.5L177.5 120L181 124.5L184 124.5L185.5 123L185.5 119L182 116.5L180 116.5ZM166 118.5L157.5 125L160.5 129L160.5 131L159 132.5L150 133.5L144.5 139L144.5 141L147 143.5L154 143.5L158 141.5L162 137.5L164 137.5L167 141.5L169.5 140L170.5 135L169 133.5L167 134.5L165.5 133L166.5 129L169.5 126L168.5 120L166 118.5ZM59 119.5L57.5 121L56.5 126L59 128.5L62 128.5L63.5 127L63.5 121L62 119.5L59 119.5ZM125 119.5L124.5 124L123.5 125L124 126.5L126.5 124L126.5 120L125 119.5ZM34 120.5L30.5 123L30.5 127L32 128.5L36 128.5L37.5 127L37.5 122L36 120.5L34 120.5ZM93 124.5L91.5 126L91.5 130L95 133.5L97 133.5L99.5 131L99.5 128L96 124.5L93 124.5ZM188 124.5L184 129.5L178.5 130L180 131.5L185 130.5L188.5 127L188 124.5ZM8 125.5L6.5 127L7.5 132L9 133.5L13 133.5L14.5 132L13.5 128L12 126.5L8 125.5ZM80 125.5L78 128.5L75.5 129L75.5 131L72.5 134L74.5 137L74.5 139L71 140.5L65 139.5L58.5 146L58.5 148L60 149.5L63 150.5L71 149.5L76 144.5L77 144.5L80 148.5L82.5 148L82.5 145L80.5 142L80.5 138L83.5 133L83.5 130L82.5 127L80 125.5ZM85 137.5L83.5 140L84 141.5L87.5 139L87 137.5L85 137.5ZM199 138.5L193.5 145L194 146.5L198 148.5L199.5 148L199 138.5ZM113 143.5L109.5 146L109.5 150L106.5 152L106.5 155L111 157.5L116 156.5L117.5 158L117.5 161L116.5 162L118 162.5L121.5 159L121 157.5L119 157.5L117.5 156L118.5 152L120 151.5L122 154.5L124.5 151L121 147.5L118 148.5L116.5 146L113 143.5ZM29 151.5L24.5 157L24.5 159L26 160.5L30 160.5L32.5 158L33.5 154L31 151.5L29 151.5ZM194 153.5L190.5 156L196 159.5L196.5 157L199.5 155L198 153.5L196 154.5L194 153.5ZM162 158.5L158.5 161L157.5 165L159 167.5L166 168.5L168.5 166L168.5 162L165 158.5L162 158.5ZM134 159.5L128.5 165L128.5 167L133 168.5L140 168.5L141.5 170L139 172.5L137 172.5L135.5 174L135.5 176L142 175.5L145.5 171L144.5 166L140.5 164L140.5 161L139 159.5L134 159.5ZM107 161.5L103.5 164L104 165.5L108.5 165L109.5 163L107 161.5ZM188 161.5L181.5 168L183 172.5L188 172.5L192.5 168L193.5 163L192 161.5L188 161.5ZM34 162.5L29.5 166L30 167.5L32 167.5L34 169.5L35.5 168L34.5 167L35.5 163L34 162.5ZM196 162.5L194.5 169L188.5 175L190 176.5L192 176.5L196.5 171L197.5 163L196 162.5ZM172 163.5L170.5 165L170.5 167L166 170.5L165 172.5L169 172.5L170.5 171L173.5 167L172 163.5ZM49 165.5L46.5 168L46.5 172L49 174.5L51 174.5L54.5 172L54.5 169L51 165.5L49 165.5ZM75 165.5L72.5 168L72.5 171L75 173.5L80.5 175L80.5 176L76.5 179L78 180.5L80 178.5L82 178.5L86.5 174L86.5 171L85 170.5L83 173.5L81.5 172L81.5 169L78 165.5L75 165.5ZM100 167.5L95.5 173L95.5 177L97.5 178L97.5 181L99 182.5L105 182.5L109.5 178L110.5 170L109 168.5L100 167.5ZM116 168.5L114.5 170L114.5 176L118.5 180L118.5 184L116.5 186L116.5 189L118 190.5L120.5 189L121 186.5L133 190.5L138 189.5L140.5 187L140.5 186L134 180.5L126 180.5L124 181.5L122.5 179L125.5 176L125.5 174L116 168.5ZM16 171.5L11.5 177L11.5 179L13 180.5L17 180.5L19.5 178L19.5 174L16 171.5ZM30 173.5L28.5 175L28.5 181L32.5 186L32.5 188L29.5 191L29.5 193L31 194.5L32 194.5L34 191.5L35 192.5L38 191.5L42 194.5L47 194.5L49 195.5L54.5 192L54.5 191L48 185.5L37.5 185L37.5 182L43.5 176L43 175.5L39 178.5L37 178.5L35 174.5L30 173.5ZM23 177.5L18 186.5L19 186.5L23.5 181L23 177.5ZM167 185.5L166.5 189L162.5 192L162.5 195L164 196.5L167 195.5L170 198.5L173 198.5L177.5 193L175 189.5L172 187.5L169 187.5L167 185.5ZM82 193.5L79.5 196L79.5 198L83 201.5L90 202.5L91.5 204L90 206.5L88 206.5L86.5 208L92 207.5L93.5 206L94.5 202L92 201.5L90.5 200L90.5 198L87 194.5L82 193.5ZM180 196.5L176 201.5L173 201.5L170.5 203L172 204.5L177 204.5L179 203.5L181.5 199L181.5 197L180 196.5ZM0 198.5L-0.5 206L2 206.5L3.5 205L3.5 202L2.5 200L0 198.5ZM146 200.5L143.5 203L143.5 206L142.5 207L143.5 208L143.5 211L151.5 215L149.5 218L150 219.5L155 218.5L157.5 216L157.5 213L159.5 210L158 207.5L155.5 207L155.5 205L153 202.5L146 200.5ZM120 203.5L117.5 206L118.5 209L117.5 213L120.5 216L119.5 218L121 219.5L122 218.5L129 217.5L132.5 213L132.5 207L129 203.5L124 205.5L122 205.5L120 203.5ZM81 207.5L80.5 212L79.5 213L80.5 219L78.5 221L79.5 225L78 226.5L68 227.5L64.5 232L66 234.5L68 235.5L77 234.5L81 230.5L82 230.5L85 234.5L88.5 231L88.5 230L84.5 227L84.5 225L87.5 221L87.5 215L86 213.5L84 214.5L81.5 214L82.5 208L81 207.5ZM44 208.5L44.5 216L43.5 218L45 218.5L46.5 217L46.5 212L44 208.5ZM63 208.5L61 210.5L58 209.5L56.5 211L56.5 214L58 215.5L65 217.5L69 214.5L69 220.5L73.5 216L73.5 213L72 211.5L70 211.5L67 208.5L63 208.5ZM173 208.5L168 214.5L164.5 216L164.5 218L166.5 220L166 222.5L156 222.5L149.5 228L149.5 230L151 231.5L159 232.5L161 230.5L164 230.5L169 226.5L170.5 228L170.5 230L173 231.5L174.5 230L174.5 228L171.5 225L171.5 221L174.5 218L174.5 210L173 208.5ZM184 208.5L182.5 210L182.5 213L185 215.5L194.5 213L194 211.5L189 208.5L184 208.5ZM37 210.5L33.5 214L33.5 216L35 217.5L40 218.5L41.5 217L42.5 213L40 210.5L37 210.5ZM98 212.5L95.5 216L99 219.5L102 219.5L103.5 221L102 222.5L94.5 222L97 225.5L103 225.5L106.5 222L107.5 217L106 214.5L104 214.5L102 212.5L98 212.5ZM194 215.5L190 219.5L185 219.5L183 218.5L182.5 220L185 222.5L191 222.5L194.5 218L194 215.5ZM0 217.5L0 226.5L1.5 225L1.5 219L0 217.5ZM12 217.5L10.5 219L10.5 222L14 225.5L16 225.5L18.5 223L18.5 221L15 217.5L12 217.5ZM116 229.5L110.5 235L110.5 239L115 242.5L119 242.5L119.5 245L115.5 247L117 248.5L121 248.5L126.5 244L126.5 241L128.5 239L128.5 237L126 233.5L123 234.5L120.5 232L120 229.5L116 229.5ZM3 231.5L-0.5 234L0 239.5L4.5 232L3 231.5ZM32 238.5L29.5 241L29.5 246L31 247.5L34 247.5L38.5 244L38.5 241L36 238.5L32 238.5ZM198 241.5L195.5 249L194 250.5L189 250.5L185.5 254L186.5 263L189 265.5L192 266.5L196 266.5L199.5 264L199.5 253L196.5 251L196.5 250L199.5 248L199.5 242L198 241.5ZM166 242.5L159.5 248L159.5 253L163 255.5L166 254.5L167.5 256L166.5 260L168 261.5L173 260.5L177.5 255L177.5 251L176 249.5L175.5 252L173 253.5L172.5 250L166 242.5ZM42 243.5L36 253.5L39 253.5L40.5 252L40.5 250L42.5 248L42 243.5ZM134 245.5L131.5 248L132.5 253L134 253.5L136 252.5L139 255.5L143 255.5L144.5 257L143 258.5L138 258.5L140 261.5L146 260.5L148.5 257L148.5 252L146 251.5L142 245.5L134 245.5ZM81 247.5L74.5 255L75.5 259L78 259.5L80 257.5L84 257.5L87 260.5L90.5 256L81 247.5ZM55 249.5L52 250.5L50.5 253L53 257.5L58 258.5L60.5 256L60.5 253L58 250.5L55 249.5ZM113 249.5L110 253.5L106 251.5L99.5 257L98.5 260L102 265.5L109 265.5L113.5 262L114.5 250L113 249.5ZM120 252.5L118.5 254L118.5 260L122.5 264L122.5 267L120.5 269L120.5 271L122 272.5L126 269.5L131 273.5L134 273.5L135 274.5L139 274.5L143.5 272L143.5 270L139 265.5L128 264.5L126.5 263L127.5 262L127.5 259L125 258.5L120 252.5ZM109.5 257L111 256.5L111.5 259L109 261.5L108.5 258L109.5 257ZM35 258.5L33.5 260L33.5 264L37.5 268L37.5 271L34.5 273L34.5 275L37 278.5L39.5 277L39.5 275L41 273.5L47 277.5L52 277.5L53 278.5L59.5 275L59.5 274L54 269.5L44 269.5L42.5 268L48 261.5L50 261.5L52 263.5L53.5 263L49 258.5L43 263.5L35 258.5ZM63 258.5L59 263.5L56.5 264L60 264.5L64.5 260L64.5 259L63 258.5ZM20 259.5L16.5 262L16.5 266L18 267.5L21 267.5L24.5 264L24.5 261L23 259.5L20 259.5ZM171 271.5L167.5 274L166.5 279L168.5 282L174 286.5L177 285.5L177.5 288L175 288.5L171 286.5L170 286.5L169.5 288L173 290.5L178 290.5L179 289.5L186 290.5L183.5 287L184.5 283L181 283.5L179.5 282L179.5 279L176 275.5L173 274.5L171 271.5ZM86 276.5L83 277.5L82.5 279L88 285.5L94 284.5L95.5 283L95.5 280L92 276.5L86 276.5ZM99 283.5L94 288.5L92 288.5L91.5 290L97 289.5L98.5 288L99 283.5ZM1 284.5L-0.5 286L-0.5 291L2 292.5L6 292.5L8.5 290L7.5 286L6 284.5L1 284.5ZM132 285.5L130 287.5L124 287.5L120.5 291L121.5 295L125 299.5L132 299.5L135.5 295L135.5 289L132 285.5ZM151 286.5L147.5 289L145.5 292L145.5 294L148 296.5L152 296.5L153 297.5L158 296.5L160 297.5L161.5 296L161.5 293L163.5 291L162 289.5L159 290.5L156 287.5L151 286.5ZM69 290.5L66.5 293L66.5 297L69 299.5L72 299.5L73.5 297L73.5 292L72 290.5L69 290.5ZM78 292.5L76.5 294L76 299.5L78.5 299L78 292.5ZM86 293.5L84.5 295L85 299.5L86.5 299L86 293.5ZM43 294.5L38.5 299L39 299.5L47 299.5L48.5 298L46 294.5L43 294.5ZM104 294.5L101.5 297L102 299.5L109.5 299L104 294.5ZM174 295.5L171.5 298L172 299.5L176.5 299L176.5 296L174 295.5ZM186 295.5L184.5 297L185 299.5L192.5 299L189 295.5L186 295.5Z" fill="#cc8659" fill-rule="evenodd"/><path d="M72 134.5L71.5 139L74 139.5L74.5 137L73.5 135L72 134.5ZM82 136.5L80.5 138L81 140.5L83 140.5L84.5 139L82 136.5ZM124 159.5L122.5 161L123.5 164L121.5 167L122.5 168L122.5 172L125 173.5L128.5 170L128.5 165L125.5 162L125.5 160L124 159.5ZM115 165.5L112.5 168L112.5 174L109.5 176L108.5 179L113 179.5L114.5 182L110 182.5L106.5 185L108 188.5L112 187.5L112.5 190L109 194.5L108 193.5L106 194.5L104.5 197L101.5 199L103.5 201L103.5 206L104.5 208L106 208.5L107 210.5L108 209.5L109 211.5L109.5 209L111.5 208L111.5 206L110 204.5L107 205.5L106.5 204L109.5 202L109.5 199L111 196.5L112 198.5L112.5 197L113.5 197L114 200.5L115 197.5L116.5 201L120 203.5L121 203.5L121.5 202L119.5 200L118.5 196L120 196.5L121 193.5L121.5 195L123 194.5L127 199.5L130 199.5L134 196.5L134.5 199L131.5 202L132.5 213L125.5 223L126 224.5L127 223.5L132 227.5L133.5 230L127.5 235L129.5 241L129.5 243L126.5 244L127.5 249L126 250.5L124 250.5L122 248.5L114.5 249L114.5 258L113.5 259L113.5 272L114.5 274L113 273.5L112 275.5L110.5 275L109.5 281L113.5 284L114 286.5L114.5 285L115.5 285L116.5 291L118 292.5L119.5 292L118.5 290L121.5 287L120 284.5L119 285.5L118 284.5L116.5 285L119 280.5L121 280.5L123.5 283L124 285.5L126 285.5L129 282.5L131 282.5L134.5 286L134.5 288L136 289.5L139 285.5L140.5 287L139.5 299L144 299.5L142.5 296L145.5 294L145.5 291L144.5 290L144.5 287L145.5 286L141.5 283L142.5 279L146 279.5L149 278.5L153 280.5L157 280.5L157 278.5L154 278.5L152.5 277L154 274.5L159 275.5L162.5 272L163 269.5L164 271.5L165 268.5L165.5 270L166.5 270L167 266.5L168 269.5L169 265.5L169.5 268L170.5 268L170.5 263L168 261.5L166 258.5L162 258.5L161 259.5L159.5 258L160.5 255L159.5 253L159.5 248L166 242.5L171 244.5L173 243.5L178.5 247L176.5 250L179.5 252L178.5 253L178.5 256L180.5 258L180.5 260L180 260.5L179 258.5L176 259.5L174.5 261L174.5 264L173 265.5L172 264.5L171.5 267L173 266.5L175 268.5L179 269.5L183.5 274L183.5 276L190.5 281L187.5 283L187.5 287L192 289.5L195 288.5L194.5 293L199 297.5L199.5 265L198 264.5L196 266.5L192 266.5L189 265.5L186 262.5L184 263.5L182 262.5L181.5 259L183 259.5L185.5 257L184.5 249L186 249.5L187 248.5L190 249.5L194 244.5L197 244.5L197.5 242L199.5 241L199 238.5L195.5 238L196.5 236L196.5 230L199.5 229L199.5 213L198 212.5L196.5 214L196.5 218L191 222.5L185 222.5L183 220.5L180 220.5L177.5 223L177.5 225L174.5 228L174.5 230L173 231.5L170.5 230L170.5 228L169 226.5L164 230.5L161 230.5L159 232.5L151 231.5L149.5 230L149.5 228L154 223.5L156 222.5L166 222.5L166.5 220L161 215.5L158 215.5L155 218.5L152 218.5L151 219.5L144 217.5L141.5 215L141.5 210L143.5 209L142.5 207L143.5 206L143.5 203L147 200.5L148.5 198L148.5 195L147 194.5L146.5 193L148 191.5L152.5 191L150.5 188L151.5 186L150.5 182L152 180.5L157 184.5L157.5 180L163.5 176L160 171.5L158.5 172L156 176.5L151 172.5L150 174.5L149 172.5L148 175.5L147.5 171L146 170.5L142 175.5L136 176.5L134 173.5L131.5 173L131 170.5L122.5 180L124 181.5L126 180.5L134 180.5L136 181.5L140.5 187L138 189.5L135 190.5L127 189.5L125 191.5L123.5 190L123.5 187L121 186.5L120.5 189L118 190.5L116.5 189L116.5 186L118.5 184L118.5 180L114.5 176L114.5 170L117 168.5L120 170.5L120.5 168L118 165.5L115 165.5ZM199 187.5L197.5 189L197.5 192L199 193.5L199 187.5ZM162 188.5L157.5 191L157.5 195L159.5 195L158.5 207L161.5 209L160.5 212L166 215.5L166.5 204L164.5 202L164.5 197L162.5 195L162.5 192L164.5 189L162 188.5ZM192 200.5L192 203.5L195.5 203L194 200.5L192 200.5ZM178 203.5L177 204.5L172 204.5L168.5 207L169 213.5L173 208.5L174.5 210L174.5 218L171.5 221L172 225.5L173 225.5L180.5 217L180.5 215L178.5 213L179.5 205L178 203.5ZM83 208.5L81.5 210L82 214.5L83.5 214L83.5 212L85.5 210L85 208.5L83 208.5ZM111 210.5L109.5 212L110.5 214L109.5 218L112 221.5L115 221.5L116 222.5L117 221.5L117.5 225L116 224.5L115 225.5L110 223.5L108 224.5L106.5 227L107.5 228L107.5 231L106 230.5L104.5 233L106 235.5L108 235.5L109.5 234L108.5 232L109 228.5L110 230.5L113 228.5L121 229.5L124.5 225L124 222.5L123 224.5L122.5 223L121 223.5L120 221.5L119.5 224L118.5 224L118.5 221L113.5 216L113.5 213L111 210.5ZM88 219.5L84.5 225L85 227.5L87 227.5L89.5 225L90.5 221L88 219.5ZM74 222.5L72 226.5L78 226.5L79.5 225L79 223.5L74 222.5ZM81 230.5L77.5 235L81 235.5L83 237.5L84.5 236L84.5 234L83.5 232L81 230.5ZM189.5 236L192 235.5L193.5 237L191 240.5L189 239.5L187.5 240L187.5 238L189.5 236ZM141.5 241L143 240.5L146 243.5L149 243.5L150.5 245L150.5 248L151.5 249L150.5 255L151.5 257L150.5 259L148 260.5L138.5 262L138.5 265L143.5 270L143.5 272L142 273.5L138 274.5L137.5 279L137 279.5L136 277.5L135 280.5L134 273.5L131 273.5L127 269.5L123 272.5L120.5 271L120.5 269L122.5 267L122.5 264L118.5 260L118.5 254L120 252.5L123 254.5L126 252.5L127.5 254L126.5 258L128 258.5L132.5 255L132.5 250L130.5 247L131.5 243L133 241.5L136 242.5L137 241.5L141.5 241ZM133 256.5L126.5 263L128 264.5L134 264.5L136.5 262L136.5 258L135 256.5L133 256.5ZM157.5 262L158 261.5L159.5 264L157 266.5L156.5 263L157.5 262ZM168 287.5L167.5 289L163.5 292L164.5 293L165 299.5L168.5 299L167.5 292L169.5 290L169.5 288L168 287.5ZM175 290.5L171.5 295L172 297.5L174 295.5L177 296.5L178.5 295L177.5 291L175 290.5ZM87 292.5L86.5 299L88 299.5L88.5 295L89.5 294L87 292.5Z" fill="#271718" fill-rule="evenodd"/></svg>