<svg xmlns="http://www.w3.org/2000/svg" viewBox="0 0 200 300" width="200" height="300" shape-rendering="geometricPrecision"><rect width="200" height="300" fill="#20140d"/><path d="M21 -0.5L22.5 6L25 8.5L27.5 7L31.5 1L31 -0.5L21 -0.5ZM39 -0.5L38.5 4L33.5 9L33.5 12L42 19.5L44.5 18L45.5 14L49 10.5L52 10.5L53.5 12L50.5 16L52 18.5L55 18.5L59 14.5L62 14.5L64.5 12L65.5 6L63 4.5L59 -0.5L39 -0.5ZM115 -0.5L111.5 4L111.5 7L114 9.5L116 8.5L120 8.5L121 9.5L124 8.5L126 10.5L130 10.5L131.5 9L129.5 5L126 2.5L124 -0.5L115 -0.5ZM138 -0.5L136.5 2L136.5 5L139 9.5L144 9.5L146 7.5L150 7.5L154.5 5L153 -0.5L138 -0.5ZM162 -0.5L161.5 2L164.5 7L164.5 10L165.5 11L165.5 17L161.5 21L162.5 25L164 26.5L169 29.5L174 30.5L181 26.5L184 26.5L188 23.5L191 23.5L192.5 22L192.5 19L185.5 12L183.5 5L180 1.5L177 -0.5L162 -0.5ZM189 -0.5L190.5 4L196.5 9L196.5 12L199 15.5L199.5 0L189 -0.5ZM171.5 4L176 4.5L180.5 10L180.5 14L178 17.5L176 17.5L172.5 12L173.5 9L170.5 6L171.5 4ZM77 10.5L76.5 12L77.5 14L80 14.5L80.5 13L79.5 11L77 10.5ZM0 19.5L-0.5 27L2.5 29L2.5 31L-0.5 33L-0.5 41L7 45.5L11 47.5L14 47.5L15 46.5L18 47.5L26 46.5L29 43.5L33 42.5L36.5 39L36.5 37L33 33.5L25 35.5L20 31.5L18 31.5L16 33.5L13 32.5L9 29.5L0 19.5ZM118 19.5L112 24.5L109 24.5L106 22.5L99.5 23L99.5 27L101 28.5L103 27.5L108.5 31L107.5 35L113.5 38L112 40.5L101 34.5L97 28.5L91.5 28L91.5 30L102.5 41L101.5 49L103 50.5L109 48.5L111 49.5L112.5 48L110.5 46L110.5 44L112 42.5L114 42.5L116 38.5L118.5 39L118.5 41L116.5 43L118 45.5L123 47.5L126 47.5L127.5 46L128.5 38L130 36.5L132.5 38L132.5 40L135 42.5L138 39.5L140 39.5L143 42.5L147 39.5L149 39.5L155 43.5L156.5 42L155.5 37L159.5 36L159.5 33L155 27.5L153 27.5L150 30.5L147 30.5L144 27.5L141 26.5L136 30.5L134.5 29L135.5 25L133 23.5L131.5 25L132.5 28L125.5 35L125.5 41L123 42.5L121.5 41L121.5 38L119.5 35L126.5 30L126.5 27L125 26.5L123 28.5L121 28.5L119.5 27L120.5 21L118 19.5ZM7.5 34L9 33.5L10.5 35L9 37.5L6.5 36L7.5 34ZM148 47.5L146.5 49L147.5 51L146.5 55L148 55.5L148.5 57L143 58.5L141.5 60L142.5 62L142.5 68L141.5 70L147 75.5L150 73.5L153 73.5L154.5 72L153.5 66L156 65.5L158.5 68L156.5 75L162 78.5L165 82.5L168 82.5L169.5 81L170.5 74L165.5 69L165.5 67L169 66.5L173.5 70L172.5 79L174 80.5L178 81.5L181 84.5L185.5 81L186.5 78L186.5 74L182.5 71L184 68.5L187 69.5L192 68.5L193.5 71L190.5 74L190.5 78L196 82.5L199.5 80L199.5 52L198 50.5L196 50.5L191 54.5L189 54.5L187 50.5L183 50.5L175 57.5L173.5 56L174.5 52L173 50.5L167 50.5L163 53.5L159 49.5L156 49.5L153 51.5L150 47.5L148 47.5ZM139 50.5L138.5 52L140 53.5L142.5 53L142 50.5L139 50.5ZM136 61.5L132.5 64L132.5 66L136 69.5L138 69.5L140.5 65L136 61.5ZM76 66.5L73.5 70L79 73.5L80.5 71L79.5 69L76 66.5ZM22 68.5L20.5 71L25 75.5L27 75.5L28.5 74L28.5 72L24 68.5L22 68.5ZM31 76.5L28 78.5L20 78.5L18.5 80L18.5 82L20 82.5L22 80.5L24 80.5L26 82.5L28 82.5L31 78.5L37 80.5L37.5 78L36 76.5L31 76.5ZM75 80.5L74 81.5L71 81.5L67.5 86L71 90.5L74 90.5L77.5 87L77.5 82L75 80.5ZM143 82.5L141.5 85L144 86.5L145.5 84L143 82.5ZM153 84.5L151 86.5L148 86.5L146.5 88L147.5 89L147.5 94L149 94.5L151 93.5L153.5 96L153.5 100L155 101.5L159 99.5L161 102.5L163 102.5L163.5 101L165 100.5L168.5 104L168.5 106L166 108.5L163 108.5L161 112.5L157 112.5L151 115.5L149 115.5L145 112.5L138 109.5L134 106.5L129 100.5L128 100.5L126.5 103L135 111.5L140 113.5L148 122.5L150 122.5L153 125.5L155 125.5L158 123.5L161 123.5L164 125.5L167 121.5L170 121.5L176.5 114L175.5 110L179.5 105L177.5 102L177.5 99L179.5 95L175 90.5L166 92.5L160 85.5L156 86.5L153 84.5ZM48 86.5L46.5 88L45.5 93L44 94.5L40 94.5L38.5 96L39.5 99L38 100.5L34 100.5L30 106.5L23 108.5L17.5 112L18.5 117L21 119.5L23.5 118L23.5 114L25 112.5L32 112.5L34.5 110L34.5 106L40 102.5L42.5 100L43.5 97L48.5 93L48.5 91L50.5 88L48 86.5ZM62 94.5L59.5 97L60.5 101L62 102.5L65 101.5L67 102.5L69.5 98L66 95.5L62 94.5ZM51 107.5L49.5 109L49.5 112L51 113.5L54 113.5L56.5 111L56.5 109L55 107.5L51 107.5ZM31 116.5L29.5 119L32 120.5L33.5 118L31 116.5ZM114 116.5L112.5 118L113.5 119L113.5 127L115.5 134L114.5 135L114.5 140L113.5 142L116 142.5L118 141.5L119.5 143L118.5 151L120.5 158L118.5 162L118.5 170L117.5 171L117.5 177L116.5 179L119.5 182L118.5 184L118.5 193L121 194.5L122.5 193L122.5 190L121.5 189L122.5 179L119.5 176L119.5 173L121.5 170L121.5 166L122.5 165L122.5 155L121.5 154L122.5 139L121.5 138L121.5 135L119.5 133L119.5 130L117.5 128L119 126.5L121 126.5L122.5 125L122.5 123L118 122.5L114 116.5ZM146 125.5L143.5 129L146.5 133L149 134.5L150.5 132L147.5 129L147.5 127L146 125.5ZM3 128.5L-0.5 133L0 141.5L3 137.5L6 138.5L9 135.5L12 136.5L13.5 135L13.5 133L11 130.5L6 130.5L3 128.5ZM166 136.5L163 139.5L161 138.5L158.5 139L158.5 142L165.5 147L165.5 153L159 158.5L152 158.5L150.5 161L153 163.5L158 164.5L161 161.5L165 162.5L169 158.5L171 158.5L172.5 157L172.5 154L175.5 151L175.5 143L176.5 141L172 136.5L170 137.5L166 136.5ZM99 167.5L97.5 170L100 171.5L101.5 169L99 167.5ZM40 169.5L40.5 174L43 175.5L44.5 174L44.5 172L42 169.5L40 169.5ZM36 174.5L34.5 177L36 178.5L38 178.5L38.5 176L36 174.5ZM0 184.5L-0.5 190L1 190.5L3 189.5L6 192.5L9 192.5L12.5 196L12.5 200L16.5 204L16.5 207L15.5 208L16.5 210L16.5 215L14 217.5L6 216.5L4.5 219L6 220.5L8 219.5L10 220.5L18 219.5L21.5 215L20.5 212L21.5 204L20.5 203L19.5 196L9 187.5L3 186.5L0 184.5ZM134 184.5L133.5 187L136 188.5L136.5 185L134 184.5ZM33 186.5L31 188.5L25 187.5L24.5 190L30 193.5L32.5 190L35.5 188L35 186.5L33 186.5ZM159 187.5L157.5 189L158.5 198L153 203.5L148 202.5L143 197.5L140.5 199L145 202.5L149 207.5L152 206.5L155 209.5L158 208.5L163 209.5L169.5 202L167.5 200L167.5 198L170.5 194L169.5 191L168 189.5L163 189.5L159 187.5ZM38 196.5L35 200.5L32 198.5L30 198.5L29.5 201L33 204.5L37 201.5L39 201.5L41 203.5L42.5 202L42.5 200L38 196.5ZM47 203.5L46.5 208L49 211.5L52 210.5L54 212.5L60.5 212L60.5 210L57 204.5L52 207.5L49 203.5L47 203.5ZM35 205.5L34 206.5L31 206.5L29.5 208L31 210.5L37 209.5L39 211.5L41 211.5L43.5 209L41 205.5L35 205.5ZM199 211.5L195.5 215L195.5 218L194.5 219L196.5 224L199 226.5L199 211.5ZM152 215.5L150.5 217L154.5 222L158.5 225L158.5 228L156 230.5L153 231.5L151.5 234L154 235.5L165 231.5L166.5 230L165.5 225L167.5 223L167.5 220L166 218.5L159 218.5L152 215.5ZM61 226.5L58 230.5L55 230.5L52 235.5L47 235.5L45.5 237L45.5 241L44 242.5L42 242.5L40 238.5L37.5 239L38.5 242L42 245.5L49 245.5L50.5 243L48.5 240L50 238.5L54 238.5L57 244.5L61 242.5L62.5 240L59.5 237L59.5 235L64.5 229L63 226.5L61 226.5ZM14 232.5L8.5 238L8.5 240L13 242.5L17 238.5L21 238.5L22.5 240L22.5 243L27.5 246L27.5 252L29.5 254L29.5 256L25.5 260L25.5 264L23.5 266L25 268.5L27 268.5L29.5 266L29.5 261L32.5 256L31.5 247L27.5 243L27.5 240L24 236.5L20 235.5L17 232.5L14 232.5ZM41 249.5L39.5 252L42 253.5L43.5 251L41 249.5ZM50 250.5L48.5 253L50.5 256L50.5 260L47.5 263L47.5 266L49 267.5L52.5 265L52.5 262L55.5 259L55.5 257L53.5 255L53.5 252L52 250.5L50 250.5ZM44 254.5L42.5 256L42.5 258L39.5 261L41 265.5L42 265.5L42.5 263L46.5 260L46.5 256L44 254.5ZM141 255.5L139.5 257L145 261.5L145.5 260L141 255.5ZM18 256.5L15.5 260L17 262.5L18 262.5L20.5 259L20.5 258L18 256.5ZM166 258.5L164.5 260L164.5 263L167 264.5L168.5 263L168.5 260L166 258.5ZM58 262.5L54.5 265L54.5 267L57 269.5L59.5 268L59.5 264L58 262.5ZM174 264.5L172.5 266L172.5 268L174 269.5L175.5 268L175.5 266L174 264.5ZM151 266.5L149.5 268L149.5 272L151.5 279L158.5 287L163 299.5L166 299.5L167.5 297L162.5 291L164 288.5L166 288.5L169 291.5L175 290.5L178.5 293L178.5 295L180 296.5L185 296.5L187 299.5L196 299.5L197.5 298L197.5 293L196 291.5L193 291.5L192.5 289L190 286.5L188 286.5L185 289.5L182 288.5L177 289.5L173 286.5L169 286.5L164 283.5L158.5 278L158.5 276L154.5 272L153.5 268L151 266.5ZM63 268.5L61.5 271L64 272.5L65.5 270L63 268.5ZM181 268.5L179.5 271L182 272.5L183.5 270L181 268.5Z" fill="#78593c" fill-rule="evenodd"/></svg>