<svg xmlns="http://www.w3.org/2000/svg" viewBox="0 0 200 300" width="200" height="300" shape-rendering="geometricPrecision"><rect width="200" height="300" fill="#24211d"/><path d="M0 -0.5L-0.5 4L2 2.5L3.5 4L2.5 8L4 8.5L6 7.5L7.5 5L5.5 2L3 -0.5L0 -0.5ZM17 -0.5L14.5 2L14.5 5L17 7.5L20 7.5L21 8.5L24 6.5L26.5 9L24.5 12L25.5 15L24.5 20L27 20.5L27.5 18L30.5 15L30.5 10L28.5 7L30.5 5L31 2.5L33 3.5L35.5 3L32 -0.5L25 -0.5L22.5 3L20 4.5L18.5 3L19.5 0L17 -0.5ZM43 -0.5L42.5 3L45 5.5L47 5.5L48.5 8L53 11.5L55.5 10L51.5 5L53 3.5L57 4.5L60 9.5L61 9.5L64.5 5L64.5 3L62 -0.5L43 -0.5ZM73 -0.5L75 2.5L78.5 0L73 -0.5ZM96 -0.5L95.5 2L97 3.5L99.5 0L96 -0.5ZM136 -0.5L134 2.5L140.5 1L140 -0.5L136 -0.5ZM145 -0.5L145.5 2L143 3.5L139 8.5L133 7.5L132.5 9L129 11.5L127 10.5L116 10.5L113 5.5L111 6.5L109.5 5L109 2.5L106.5 4L109.5 9L109 11.5L103 11.5L97 7.5L96.5 12L97.5 14L94 16.5L92 16.5L88 11.5L82 11.5L77 8.5L75 8.5L73 10.5L70 10.5L69.5 14L67.5 16L67.5 21L62.5 28L65 31.5L69 28.5L75.5 34L75.5 45L76.5 48L80.5 53L77.5 58L80 59.5L83.5 56L83.5 53L80.5 51L77.5 45L77.5 37L81.5 29L88 23.5L92 25.5L95 22.5L98 21.5L100 22.5L103 22.5L105 20.5L109 21.5L116 16.5L118.5 18L117.5 21L113.5 24L113.5 26L118.5 30L117 32.5L111 29.5L105 30.5L101 26.5L99 26.5L96 31.5L93 31.5L92 30.5L88.5 31L88.5 37L84.5 41L85 42.5L91 38.5L93.5 39L93 41.5L97 41.5L99 39.5L101 39.5L102.5 41L102.5 43L99.5 45L101.5 49L103 50.5L110 50.5L111 51.5L113 51.5L115.5 49L114.5 46L117 44.5L119.5 47L118.5 52L120 53.5L122 53.5L126 48.5L128 48.5L131 50.5L141 50.5L142 51.5L143 51.5L144 49.5L148 50.5L151 47.5L153 48.5L153.5 47L150.5 44L152.5 40L151.5 33L150.5 32L151.5 24L149.5 21L150.5 14L143.5 10L144 7.5L146 7.5L149 10.5L150.5 10L146.5 5L146.5 3L151.5 0L145 -0.5ZM162 -0.5L159.5 2L159.5 5L158 5.5L155 3.5L153.5 5L153.5 8L154.5 9L154.5 12L156 13.5L158 11.5L161 12.5L163 11.5L165.5 14L165 16.5L164 15.5L162.5 16L162.5 21L164 22.5L167 22.5L169.5 20L170.5 16L173.5 13L173.5 9L176 7.5L177.5 9L177.5 13L175.5 16L175.5 19L182 24.5L182.5 23L178.5 17L179.5 14L183.5 12L182.5 7L184 5.5L190 9.5L191 6.5L195 6.5L196.5 10L196.5 14L194 14.5L193.5 17L197 21.5L199.5 21L199.5 6L197.5 4L198 -0.5L162 -0.5ZM116 2.5L115.5 5L118 6.5L119.5 5L119.5 3L116 2.5ZM176.5 3L179 2.5L180.5 4L179 5.5L177 5.5L176.5 3ZM14 10.5L12.5 13L15 14.5L16.5 12L14 10.5ZM187 12.5L183.5 14L184.5 17L183.5 20L190.5 26L190.5 29L195 32.5L196.5 31L196.5 28L192.5 24L192.5 21L189.5 18L189.5 16L191.5 14L190 12.5L187 12.5ZM35 13.5L33.5 18L30.5 21L29.5 24L29.5 31L31 32.5L33.5 32L31.5 29L31.5 24L34.5 21L34.5 19L36 17.5L41 17.5L42.5 16L41 14.5L35 13.5ZM47 17.5L47 19.5L55.5 19L55 17.5L47 17.5ZM13 18.5L11.5 20L11.5 29L16 32.5L23 32.5L24 33.5L25.5 31L22 27.5L19 27.5L17 23.5L14 23.5L13.5 22L15.5 20L13 18.5ZM74.5 19L77.5 19L77.5 22L78.5 23L77.5 25L79.5 27L79.5 29L78 30.5L76 30.5L74.5 29L74.5 24L72.5 22L74.5 19ZM173 23.5L170.5 26L170.5 28L173 30.5L174.5 29L174.5 26L175.5 25L175 23.5L173 23.5ZM129.5 25L134 25.5L137 24.5L138.5 26L138.5 29L137.5 30L138.5 31L138.5 36L133 41.5L128.5 38L127.5 30L129.5 28L128.5 26L129.5 25ZM155 24.5L152.5 27L152.5 29L155.5 31L154.5 34L155.5 38L157 39.5L163 39.5L164.5 38L164.5 36L167.5 33L167.5 29L162 24.5L160 25.5L155 24.5ZM159.5 28L162 27.5L163.5 29L163.5 32L162 33.5L159.5 33L158.5 30L159.5 28ZM9 31.5L7.5 33L7.5 35L9 36.5L11 36.5L10.5 32L9 31.5ZM172 35.5L170.5 37L171 42.5L175.5 38L174 35.5L172 35.5ZM181 35.5L179.5 37L181 38.5L183 38.5L183.5 36L181 35.5ZM53 38.5L47.5 43L49 44.5L53 42.5L57 46.5L60 46.5L64 48.5L66.5 47L65 44.5L63 45.5L58 44.5L53 38.5ZM176 39.5L175.5 42L177 43.5L183.5 42L182 40.5L176 39.5ZM191 42.5L189.5 45L194 48.5L195.5 47L195.5 44L194 42.5L191 42.5ZM0 44.5L-0.5 52L1.5 54L1.5 57L-0.5 59L-0.5 74L2 73.5L2.5 77L-0.5 81L-0.5 85L2 83.5L5 84.5L5.5 82L3.5 80L8 76.5L10.5 78L6.5 90L4 92.5L-0.5 94L0 95.5L1 94.5L4 95.5L8.5 93L10.5 87L14.5 83L14.5 78L15.5 77L14.5 73L15.5 72L15.5 69L14.5 68L14.5 63L10.5 57L12.5 51L9 50.5L7 51.5L5 49.5L3 49.5L0 44.5ZM105.5 45L111 44.5L112.5 47L111 48.5L109 48.5L106 47.5L105.5 45ZM157 45.5L157 51.5L153 50.5L151.5 53L148.5 55L149.5 56L149 57.5L144 56.5L140.5 58L144 60.5L148 59.5L156 65.5L160 64.5L161.5 62L155.5 58L158 55.5L163 59.5L167.5 56L167.5 54L166 52.5L162 51.5L160.5 50L160.5 48L157 45.5ZM176 47.5L173 48.5L171.5 51L175.5 54L175.5 56L172.5 60L176.5 64L176.5 66L173 68.5L170 62.5L169.5 67L167 69.5L161.5 70L163.5 73L162 75.5L155 69.5L154 69.5L152.5 72L155 75.5L160.5 79L161.5 81L160.5 85L165.5 90L165.5 94L168 94.5L169 93.5L170.5 95L169.5 97L166.5 99L166.5 100L170 102.5L173 102.5L176 104.5L177.5 102L174.5 100L174.5 98L177 96.5L179 100.5L180.5 99L180.5 95L185 91.5L187 91.5L195 99.5L199 101.5L199.5 98L197.5 96L198.5 93L195.5 90L195.5 88L191.5 83L191.5 80L190 78.5L188.5 80L189.5 82L189 84.5L186.5 82L186 78.5L184.5 79L184.5 83L181 86.5L180 86.5L178.5 84L180.5 82L179.5 76L181 74.5L184 72.5L187 73.5L191 67.5L193 69.5L195 69.5L199.5 66L199.5 52L198 51.5L196 53.5L192 53.5L190.5 55L193.5 58L193.5 60L186 66.5L184.5 65L184.5 62L181 60.5L178.5 57L181 55.5L185 61.5L186.5 59L184.5 56L187 54.5L189.5 51L186 47.5L184 49.5L181 49.5L181.5 53L179 53.5L176 47.5ZM130 53.5L130 56.5L133 56.5L134.5 55L133 53.5L130 53.5ZM31 54.5L30.5 56L34 57.5L37 57.5L38.5 56L31 54.5ZM100 57.5L98.5 59L100 60.5L102 60.5L102.5 58L100 57.5ZM5.5 63L7 62.5L8.5 64L10 71.5L7.5 70L7.5 67L5.5 63ZM49 64.5L46.5 66L46.5 69L48 69.5L50 68.5L53 70.5L54.5 66L49 64.5ZM29 66.5L28.5 69L32 72.5L34 72.5L34.5 71L29 66.5ZM35 72.5L37 75.5L42 75.5L46 77.5L52.5 77L51 75.5L35 72.5ZM123 73.5L121 76.5L117.5 78L118 79.5L122 79.5L123.5 78L124.5 75L123 73.5ZM199 73.5L196.5 76L196.5 82L195.5 83L198 86.5L199.5 85L199 73.5ZM23 75.5L22.5 77L24.5 81L26 81.5L25.5 76L23 75.5ZM171.5 76L173 75.5L174.5 78L177.5 80L176 82.5L174 81.5L172 84.5L170.5 83L170.5 77L171.5 76ZM101 76.5L98.5 80L98.5 83L96.5 85L96.5 91L100 94.5L103 94.5L106 96.5L110 94.5L111.5 93L111.5 91L109 90.5L106 87.5L102.5 87L102.5 86L105.5 84L105.5 82L104.5 79L101 76.5ZM115 77.5L113.5 79L114 82.5L115.5 82L115.5 79L116.5 78L115 77.5ZM68 82.5L64 85.5L61.5 89L63 90.5L65 90.5L68 93.5L74 92.5L75.5 94L75 96.5L72 96.5L71 95.5L69.5 98L70.5 104L72 105.5L75 105.5L83.5 98L84.5 96L84.5 91L82.5 89L82.5 86L81 84.5L79 84.5L77 82.5L68 82.5ZM145 82.5L145.5 87L148 89.5L151 89.5L152.5 88L151 86.5L149 87.5L146.5 85L146.5 83L145 82.5ZM140 90.5L138.5 92L139 93.5L143.5 92L143 90.5L140 90.5ZM7 101.5L5.5 105L7 106.5L9.5 104L9.5 102L7 101.5ZM39 101.5L36.5 104L36.5 106L30.5 111L31 113.5L38 108.5L42 108.5L43.5 110L40.5 114L40.5 115L42 115.5L45 112.5L48 111.5L53.5 105L53.5 104L52 103.5L48 108.5L46.5 107L47.5 105L45 102.5L39 101.5ZM153 102.5L146 104.5L144.5 106L145.5 112L147 113.5L152 114.5L153.5 113L150.5 112L150.5 111L153.5 109L154.5 103L153 102.5ZM86 104.5L85 106.5L90.5 106L89 104.5L86 104.5ZM97 106.5L91.5 110L93 111.5L98 108.5L98.5 107L97 106.5ZM199 110.5L196.5 114L196.5 121L198 122.5L199.5 122L199 110.5ZM9 111.5L6 112.5L3 115.5L-0.5 116L-0.5 124L1 124.5L11 114.5L13 114.5L14.5 116L11.5 120L11.5 123L9.5 125L9.5 128L12 128.5L14.5 126L14.5 123L16.5 119L18 117.5L21 117.5L22.5 116L22.5 114L20 113.5L17 115.5L13 111.5L9 111.5ZM177 116.5L173 119.5L170.5 123L173 126.5L175 126.5L177.5 124L178.5 118L177 116.5ZM35 117.5L31 119.5L25.5 126L22.5 128L23 131.5L24.5 131L24.5 129L32 121.5L36.5 119L36.5 118L35 117.5ZM195 123.5L193.5 125L198 128.5L199.5 126L195 123.5ZM9 129.5L4 136.5L-0.5 137L0 142.5L5 141.5L6.5 139L10.5 136L9.5 134L10.5 131L9 129.5ZM177 129.5L174.5 132L175 133.5L178.5 131L178.5 130L177 129.5ZM60 132.5L58.5 135L48.5 144L49 145.5L52 144.5L59.5 137L61.5 133L60 132.5ZM188 141.5L186.5 143L190 145.5L191.5 144L188 141.5ZM58 145.5L57.5 150L60 150.5L60.5 149L58 145.5ZM104 145.5L102.5 147L103 149.5L106.5 147L106 145.5L104 145.5ZM65 149.5L65.5 154L67 154.5L67.5 151L65 149.5ZM83 149.5L80.5 152L81 154.5L82 154.5L84 151.5L87.5 151L87 149.5L83 149.5ZM59 152.5L56.5 155L58 157.5L61.5 155L61.5 154L59 152.5ZM117 152.5L116.5 154L118 155.5L120 156.5L121.5 155L117 152.5ZM181 153.5L180.5 155L184.5 160L184.5 165L181.5 171L183 173.5L187.5 169L189.5 161L185 155.5L181 153.5ZM96 159.5L94.5 161L95.5 163L94.5 167L96 168.5L98 168.5L97.5 165L98.5 164L98.5 161L96 159.5ZM173 159.5L171.5 161L172 164.5L176.5 162L176 159.5L173 159.5ZM13 162.5L9 166.5L7 166.5L5.5 168L5.5 171L10.5 176L8.5 179L8.5 181L10 182.5L14 181.5L16 182.5L17 184.5L18.5 180L15 179.5L12.5 176L17.5 172L17.5 170L19.5 168L19.5 165L18 164.5L17 165.5L13 162.5ZM26 182.5L25.5 184L29 186.5L32.5 185L31 183.5L27 183.5L26 182.5ZM147 190.5L146 192.5L141 191.5L139 193.5L137 193.5L135.5 195L135.5 197L139 197.5L143 202.5L145 202.5L146.5 200L144 199.5L143.5 197L149.5 193L149.5 191L147 190.5ZM154 193.5L152.5 196L155.5 199L154.5 200L156 201.5L158 201.5L159.5 200L159.5 198L157 194.5L154 193.5ZM19 196.5L16.5 199L18 200.5L26.5 200L26 198.5L21 198.5L19 196.5ZM199 198.5L196.5 203L197.5 204L197 213.5L199.5 211L199 198.5ZM0 204.5L0 209.5L4.5 207L4 205.5L0 204.5ZM162 205.5L158 209.5L155 209.5L153.5 211L159 211.5L162 208.5L164 208.5L164.5 207L162 205.5ZM104 217.5L102.5 220L103.5 221L103.5 224L105 224.5L106.5 222L106.5 219L104 217.5ZM15 225.5L15.5 229L13.5 231L15 232.5L17.5 230L17.5 227L15 225.5ZM153 225.5L148.5 228L149 230.5L154.5 228L154.5 226L153 225.5ZM4 228.5L-0.5 231L0 233.5L5.5 230L5.5 229L4 228.5ZM100 229.5L95.5 234L96 236.5L98 236.5L99.5 235L100 229.5ZM176 238.5L171.5 241L173 242.5L174 241.5L177 242.5L180 240.5L184.5 241L184.5 240L182 238.5L176 238.5ZM29 242.5L25.5 246L26 247.5L33.5 244L33 242.5L29 242.5ZM167 243.5L164.5 246L164 250.5L166.5 250L166.5 247L168.5 245L167 243.5ZM192 243.5L190.5 245L199 252.5L199.5 250L192 243.5ZM131 244.5L128.5 248L129 255.5L130.5 255L130.5 252L132.5 247L132.5 245L131 244.5ZM35 246.5L34 247.5L31 247.5L25.5 253L23.5 257L25 259.5L28 259.5L31 256.5L34 256.5L40.5 252L40.5 249L38 246.5L35 246.5ZM175 249.5L174.5 251L177.5 255L179.5 261L181 262.5L183 262.5L184.5 261L180.5 258L179.5 254L177.5 251L175 249.5ZM18 256.5L16.5 258L17.5 266L23 270.5L23.5 269L20.5 267L20.5 259L18 256.5ZM0 258.5L-0.5 262L1 263.5L2.5 262L2.5 260L0 258.5ZM35 258.5L33 261.5L36 261.5L37.5 260L37 258.5L35 258.5ZM27 261.5L24.5 264L24.5 266L26 267.5L31.5 263L30 261.5L27 261.5ZM123 267.5L122 272.5L124 272.5L126.5 270L125 267.5L123 267.5ZM182 267.5L181.5 270L183.5 272L184.5 276L186.5 279L189 280.5L189.5 279L186.5 276L185.5 272L183.5 270L183.5 268L182 267.5ZM178 277.5L177.5 280L180 282.5L181.5 281L178 277.5ZM199 279.5L196 281.5L193 280.5L191.5 282L193 283.5L197 283.5L199.5 282L199 279.5ZM176 281.5L172.5 284L173 285.5L177.5 283L176 281.5ZM191 284.5L189.5 286L199 294.5L199.5 292L191 284.5ZM150 288.5L148 290.5L146 290.5L145.5 292L150.5 296L151 299.5L154 299.5L156.5 294L152.5 292L152 288.5L150 288.5ZM180 288.5L178.5 290L178.5 292L184.5 296L183.5 298L185 299.5L194.5 299L186 288.5L180 288.5ZM120 295.5L118.5 299L122 299.5L121.5 296L120 295.5ZM103 296.5L101.5 298L102 299.5L106.5 299L106 296.5L103 296.5Z" fill="#1d4431" fill-rule="evenodd"/><path d="M105 -0.5L106 1.5L109.5 3L109.5 5L111 6.5L115 4.5L116 2.5L119 2.5L119.5 5L118.5 6L119.5 8L123.5 8L123.5 6L121.5 4L121 -0.5L105 -0.5ZM141 -0.5L140.5 1L143 3.5L145.5 2L144 -0.5L141 -0.5ZM2 6.5L-0.5 8L-0.5 12L4 13.5L4.5 12L2 6.5ZM187 7.5L186.5 12L191 13.5L191.5 11L187 7.5ZM158 11.5L156.5 13L159 15.5L160.5 14L160.5 12L158 11.5ZM183 20.5L181.5 25L181.5 30L179 31.5L177 29.5L174 29.5L171.5 34L172 35.5L174 35.5L176 37.5L178 37.5L181 35.5L183.5 36L184.5 41L183 42.5L177 43.5L175 40.5L173 40.5L171.5 42L178 49.5L184 49.5L187 47.5L190.5 43L191.5 36L192.5 35L191.5 33L192.5 31L190.5 29L190.5 26L186 21.5L183 20.5ZM107 21.5L103.5 24L103.5 27L108 30.5L110.5 23L109 21.5L107 21.5ZM133 25.5L131.5 27L131.5 34L128.5 36L129 38.5L132 36.5L134 36.5L136 38.5L138.5 36L138.5 31L137 30.5L134.5 28L134.5 26L133 25.5ZM28 43.5L23.5 52L23.5 59L28.5 63L28.5 65L35 72.5L47 74.5L52 76.5L58 76.5L63.5 72L62.5 68L61 66.5L59 66.5L55 70.5L52 70.5L50 68.5L38 70.5L34 67.5L29.5 62L30 58.5L35 61.5L42 60.5L45 62.5L48.5 58L47 56.5L44 56.5L43 55.5L39 55.5L37 57.5L34 57.5L29 55.5L26.5 52L30 51.5L33.5 47L28 43.5ZM155 46.5L153.5 48L153.5 50L155 51.5L157 51.5L157.5 48L155 46.5ZM144 53.5L141 54.5L139.5 57L143 57.5L144.5 56L144 53.5ZM58 59.5L55.5 62L60 64.5L61.5 62L58 59.5ZM172 59.5L170.5 61L170.5 64L171.5 67L174 68.5L176.5 66L176.5 64L172 59.5ZM103 63.5L101 64.5L98.5 68L104 71.5L106 71.5L108 68.5L111 68.5L112.5 67L110 63.5L103 63.5ZM120 63.5L117.5 66L119 68.5L120 68.5L121.5 66L121.5 64L120 63.5ZM140 64.5L138.5 66L139.5 69L140.5 71L143 72.5L143.5 71L142.5 69L143.5 67L140 64.5ZM198 66.5L192.5 71L192 73.5L189 74.5L187 73.5L184.5 76L184.5 78L189 79.5L190 78.5L191.5 80L191.5 83L195.5 88L195.5 90L198.5 93L197.5 96L199 97.5L199.5 86L198 86.5L195.5 84L196.5 82L196.5 76L199.5 73L199.5 67L198 66.5ZM116 67.5L114.5 69L114.5 74L117 78.5L119 77.5L119.5 76L116.5 73L116 67.5ZM161 69.5L157.5 72L162 75.5L163.5 73L161 69.5ZM158 77.5L155.5 80L155.5 83L157.5 86L160 87.5L161.5 86L160.5 85L161.5 81L160.5 79L158 77.5ZM115 82.5L111.5 88L113 89.5L118 89.5L119.5 88L119.5 84L118 82.5L115 82.5ZM128 86.5L127.5 89L132 91.5L132.5 89L128 86.5ZM176 96.5L174.5 98L174.5 100L177 101.5L178.5 100L178.5 98L176 96.5ZM131 98.5L128.5 101L128.5 103L130 104.5L132.5 100L132.5 99L131 98.5ZM158 117.5L156 118.5L154.5 121L162 125.5L165.5 120L163 119.5L161 117.5L158 117.5ZM118 118.5L120 121.5L123.5 121L122 118.5L118 118.5ZM151 124.5L148.5 128L148.5 131L146.5 133L147 135.5L148.5 135L148.5 133L150 131.5L154 134.5L155.5 133L151.5 130L152.5 125L151 124.5ZM99 126.5L97.5 128L97.5 132L99 133.5L101 133.5L103.5 130L99 126.5ZM199 127.5L197.5 129L199 130.5L199 127.5ZM120 128.5L119.5 130L124 132.5L127 132.5L128.5 131L127 129.5L123 130.5L120 128.5ZM161 132.5L159.5 135L162 136.5L163.5 134L161 132.5ZM53 147.5L51.5 150L55 152.5L57.5 150L57.5 148L53 147.5ZM9 148.5L7.5 150L9.5 152L9.5 154L11 154.5L11.5 150L9 148.5ZM140 150.5L138.5 153L141 154.5L142.5 152L140 150.5ZM124 155.5L122.5 158L124 159.5L127 159.5L127.5 158L124 155.5ZM44 156.5L43.5 159L45 160.5L47 160.5L47.5 159L44 156.5ZM157 159.5L155.5 161L155.5 164L157 165.5L161 165.5L162.5 163L157 159.5ZM184 186.5L181.5 190L182 191.5L186.5 188L184 186.5ZM46 188.5L42.5 191L43.5 193L42.5 195L43 198.5L48.5 194L49.5 191L49 188.5L46 188.5ZM187 191.5L185.5 195L186.5 198L185.5 202L187 203.5L189 203.5L190.5 202L190.5 200L193 198.5L196 203.5L197.5 201L195.5 199L194.5 194L193 192.5L189 193.5L188.5 192L187 191.5ZM33 194.5L33.5 199L35 200.5L37 200.5L37.5 199L36.5 197L33 194.5ZM62 194.5L57.5 196L58 200.5L60 200.5L62 197.5L65 197.5L66.5 196L66 194.5L62 194.5ZM10 197.5L7 200.5L4 199.5L-0.5 204L7 206.5L7.5 203L12.5 199L12 197.5L10 197.5ZM41 203.5L40.5 207L36.5 211L38 213.5L41.5 210L42.5 204L41 203.5ZM168 205.5L165 206.5L164.5 209L167 209.5L169 213.5L171 213.5L170.5 209L171.5 207L170 205.5L168 205.5ZM196 211.5L194 213.5L191 213.5L190.5 215L194 215.5L196 214.5L196 211.5ZM65 227.5L63.5 230L66 231.5L67.5 229L65 227.5ZM147 236.5L145.5 239L148 240.5L148.5 237L147 236.5ZM64 238.5L60.5 241L60.5 243L62 244.5L64 244.5L65.5 243L65.5 240L64 238.5ZM136 239.5L135.5 242L137 243.5L142.5 241L142 239.5L136 239.5ZM23 246.5L20.5 249L19.5 251L20 252.5L22 252.5L23.5 251L23.5 249L25.5 247L23 246.5ZM111 246.5L109.5 249L112 250.5L113.5 248L111 246.5ZM0 247.5L-0.5 251L4 253.5L5.5 251L2 247.5L0 247.5ZM45 247.5L44.5 251L45.5 253L40.5 257L42 258.5L44 257.5L47.5 253L47.5 248L45 247.5ZM65 254.5L63.5 257L66 258.5L67.5 256L65 254.5ZM51 259.5L50.5 264L51.5 266L53 266.5L52.5 260L51 259.5ZM99 263.5L96 264.5L95.5 266L101 269.5L101.5 265L99 263.5ZM25 267.5L23.5 269L24 271.5L26.5 270L26.5 268L25 267.5ZM146 277.5L144.5 280L147 281.5L148.5 279L146 277.5ZM135 282.5L133.5 284L135 285.5L136 284.5L139 284.5L139.5 286L135 286.5L129 289.5L126.5 292L128 293.5L130 293.5L132 291.5L135 291.5L138 289.5L140 290.5L143 289.5L145 290.5L148.5 290L148 288.5L145.5 288L146.5 285L145 283.5L143 282.5L135 282.5ZM176 283.5L168.5 292L168.5 294L171 296.5L174.5 294L174.5 291L179 286.5L181 286.5L183 288.5L186 288.5L188 290.5L190 290.5L193.5 294L195.5 298L197 299.5L198.5 299L196.5 294L192.5 290L192.5 288L191 286.5L188 286.5L182 283.5L180 284.5L176 283.5ZM127 286.5L122 289.5L119.5 293L121 293.5L128 288.5L128.5 287L127 286.5ZM79 291.5L78 292.5L75 292.5L70.5 297L70.5 299L72 299.5L74 296.5L78 296.5L81.5 293L79 291.5ZM124 292.5L121.5 295L122 298.5L123 298.5L125.5 295L124 292.5ZM137 292.5L131 294.5L128 296.5L126 299.5L129 299.5L133 296.5L135 296.5L139 299.5L149.5 299L144 292.5L137 292.5ZM116 294.5L110.5 299L113 299.5L117.5 295L116 294.5Z" fill="#8a3733" fill-rule="evenodd"/><path d="M20 -0.5L18.5 3L21 4.5L24.5 0L20 -0.5ZM130 -0.5L131 1.5L134 1.5L135.5 0L130 -0.5ZM177 2.5L177 5.5L179 5.5L180.5 4L179 2.5L177 2.5ZM30 5.5L28.5 8L31 10.5L32.5 9L32.5 7L30 5.5ZM193 6.5L193.5 14L196 14.5L196.5 10L195.5 7L193 6.5ZM144 7.5L144 10.5L149 13.5L150.5 13L150 10.5L146 7.5L144 7.5ZM162 11.5L161.5 14L165 16.5L165.5 14L162 11.5ZM181 12.5L179.5 14L178.5 18L182 22.5L184.5 17L183.5 16L183.5 13L181 12.5ZM95 22.5L91.5 27L93.5 30L96 31.5L97.5 30L96.5 28L97.5 23L95 22.5ZM151 26.5L150.5 32L151.5 33L151.5 37L153 37.5L153.5 30L152.5 27L151 26.5ZM12 29.5L12.5 34L15 36.5L20 37.5L23.5 34L23 32.5L16 32.5L12 29.5ZM99 39.5L97.5 41L97.5 43L99 44.5L101 44.5L102.5 43L102.5 41L101 39.5L99 39.5ZM106 44.5L106 47.5L111 48.5L112.5 47L111 44.5L106 44.5ZM151 47.5L148 50.5L144 49.5L143.5 53L145 54.5L150 54.5L153.5 50L153.5 49L151 47.5ZM158 55.5L155.5 58L161 61.5L162.5 59L158 55.5ZM180 55.5L178.5 58L181 60.5L184 61.5L184.5 60L183.5 58L180 55.5ZM46 61.5L41.5 65L41.5 67L44 69.5L46.5 69L46 61.5ZM55 62.5L53.5 64L54.5 66L53.5 68L54 70.5L59.5 66L58 63.5L55 62.5ZM117 66.5L116.5 73L121 76.5L122.5 75L121.5 70L117 66.5ZM191 67.5L187.5 72L188 74.5L192.5 73L193.5 70L191 67.5ZM184 72.5L184 78.5L184.5 76L186.5 74L184 72.5ZM175 78.5L173.5 81L176 82.5L177.5 80L175 78.5ZM187 78.5L186.5 82L189 84.5L189.5 82L188.5 79L187 78.5ZM17 87.5L14.5 89L14.5 92L16 93.5L21 93.5L21.5 91L17 87.5ZM70 92.5L69.5 94L72 96.5L75.5 96L75.5 94L74 92.5L70 92.5ZM11 96.5L6.5 100L7 101.5L14.5 99L11 96.5ZM143 96.5L140.5 99L142 100.5L145 100.5L145.5 98L143 96.5ZM167 100.5L165.5 103L169 107.5L173 107.5L175.5 105L175 103.5L170 102.5L167 100.5ZM119 103.5L116.5 106L115.5 108L116 109.5L118 109.5L120 107.5L125 108.5L126.5 107L122 103.5L119 103.5ZM84 106.5L83.5 114L85 115.5L86.5 114L86.5 111L88 109.5L92 109.5L92.5 108L91 106.5L84 106.5ZM152 109.5L150.5 112L154 112.5L154.5 111L152 109.5ZM11 114.5L7.5 118L10.5 120L8.5 123L6.5 131L3 134.5L0 134.5L0 136.5L4 136.5L9.5 129L9.5 125L11.5 123L11.5 120L14.5 116L13 114.5L11 114.5ZM117 119.5L115.5 121L116 124.5L118.5 121L118.5 120L117 119.5ZM47 122.5L45.5 125L48 127.5L50 127.5L50.5 124L49 122.5L47 122.5ZM189 124.5L187.5 130L193 133.5L195 133.5L196.5 131L194 130.5L191.5 128L191 124.5L189 124.5ZM61 149.5L58.5 151L59 152.5L64.5 151L64 149.5L61 149.5ZM41 152.5L39.5 155L40.5 157L39.5 160L43 163.5L47 163.5L48.5 162L48 160.5L43 160.5L41.5 159L42.5 153L41 152.5ZM71 160.5L69.5 162L69.5 166L71 167.5L75 166.5L76.5 169L79 170.5L80.5 169L79.5 166L76 162.5L71 160.5ZM182 160.5L180.5 165L181 168.5L182 168.5L184.5 165L184.5 162L182 160.5ZM103 163.5L101 165.5L98 164.5L97.5 167L103 167.5L105.5 165L103 163.5ZM132 164.5L126.5 170L127 172.5L132 172.5L133.5 171L133.5 165L132 164.5ZM27 175.5L23.5 178L25 179.5L30 178.5L30.5 183L33 184.5L34.5 183L33.5 177L32 175.5L27 175.5ZM131 179.5L130 180.5L127 180.5L125.5 182L125.5 187L127 188.5L128.5 187L128.5 184L131.5 181L131 179.5ZM140 189.5L137.5 192L138 193.5L141 191.5L144 192.5L146.5 192L145 189.5L140 189.5ZM48 194.5L45.5 197L48 200.5L50.5 197L50.5 196L48 194.5ZM177 214.5L176.5 221L178 222.5L183 223.5L183.5 221L179.5 218L179.5 215L177 214.5ZM31 216.5L28.5 220L36 225.5L37 225.5L41.5 220L41.5 217L39 216.5L38.5 221L37 222.5L35 222.5L31 216.5ZM197 232.5L195.5 234L195.5 239L199 241.5L199.5 233L197 232.5ZM34 243.5L23.5 249L23.5 251L20.5 256L20.5 264L22 265.5L27 261.5L30 261.5L31 262.5L35 258.5L39 257.5L43.5 253L44.5 248L40 243.5L34 243.5ZM34.5 247L38 246.5L40.5 249L40.5 252L34 256.5L31 256.5L28 259.5L25 259.5L23.5 257L25.5 253L31 247.5L34.5 247ZM146 254.5L143.5 257L145 258.5L148 258.5L148.5 256L146 254.5ZM161 267.5L159.5 269L160.5 270L160.5 273L162 273.5L163.5 271L163.5 268L161 267.5ZM145 272.5L142.5 275L144 276.5L147 274.5L150 276.5L151.5 276L150 273.5L145 272.5ZM179 272.5L177.5 274L177.5 277L180 278.5L181.5 277L181.5 274L179 272.5ZM70 280.5L68.5 283L73 287.5L75 287.5L76.5 285L70 280.5Z" fill="#817768" fill-rule="evenodd"/></svg>