<svg xmlns="http://www.w3.org/2000/svg" viewBox="0 0 200 300" width="200" height="300" shape-rendering="geometricPrecision"><rect width="200" height="300" fill="#1c5a94"/><path d="M71 -0.5L69 1.5L66 1.5L63.5 4L68 4.5L71 3.5L71.5 10L73 10.5L73.5 0L71 -0.5ZM104 -0.5L104.5 2L114.5 13L116.5 17L115 18.5L108 12.5L106.5 14L110.5 18L111.5 22L116.5 27L114 28.5L101.5 14L98 10.5L96.5 11L103.5 21L101 21.5L96 16.5L94 16.5L93.5 18L94.5 20L100.5 27L99 28.5L94 23.5L92.5 26L95.5 31L100.5 36L98.5 42L103.5 48L102 50.5L96 43.5L94.5 44L95.5 49L93 49.5L87.5 42L92.5 39L90 36.5L87.5 36L88.5 27L89.5 26L89.5 19L88.5 18L88 12.5L87 12.5L84.5 16L83.5 26L82 27.5L80 27.5L78 25.5L75 25.5L73.5 27L73.5 29L76 29.5L77 28.5L80.5 31L80.5 33L82.5 35L82.5 37L80.5 39L81.5 42L83 43.5L85 43.5L87.5 46L87.5 48L94.5 54L104.5 69L110 74.5L112 74.5L113.5 73L110.5 70L112 68.5L114.5 70L116.5 73L114.5 79L121 86.5L122.5 84L117.5 78L120 77.5L125 81.5L125.5 79L124.5 77L127 75.5L133.5 81L136.5 87L138 88.5L140 88.5L141.5 86L138 83.5L126.5 71L128 68.5L131 71.5L132.5 70L128.5 65L130 62.5L132 62.5L135 65.5L136.5 64L129.5 56L130 54.5L134 54.5L134.5 53L127.5 43L129 42.5L131 45.5L133 45.5L135 47.5L135.5 46L133.5 42L129.5 39L129.5 37L117.5 24L119 22.5L126.5 30L128.5 34L132 37.5L135 37.5L135.5 35L130.5 31L124.5 22L128 21.5L133 27.5L134.5 27L134.5 25L119 5.5L118 5.5L117.5 7L123.5 15L123.5 16L121 17.5L117.5 14L115.5 10L104 -0.5ZM143 -0.5L145 3.5L147.5 3L148 -0.5L143 -0.5ZM151 -0.5L150.5 1L158.5 11L165 15.5L168 19.5L169.5 18L160.5 9L157.5 4L153 -0.5L151 -0.5ZM157 -0.5L156.5 0L160 2.5L162 2.5L163.5 0L157 -0.5ZM89 0.5L86.5 4L87.5 9L89 10.5L89.5 8L91.5 7L90.5 1L89 0.5ZM98 2.5L96.5 4L100 7.5L101.5 6L98 2.5ZM124 2.5L122.5 4L125 7.5L126.5 5L124 2.5ZM133 3.5L131.5 5L132.5 7L135 8.5L135.5 7L133 3.5ZM50 5.5L47 7.5L41.5 8L42.5 13L44.5 15L45 17.5L47.5 17L47 10.5L53 9.5L57.5 7L50 5.5ZM165 5.5L163.5 7L168 10.5L169.5 9L165 5.5ZM150 6.5L149.5 8L157.5 18L158.5 21L160 22.5L162 22.5L162.5 20L160.5 17L156.5 12L150 6.5ZM12 11.5L11.5 13L13.5 16L26 27.5L27.5 26L12 11.5ZM30 11.5L29.5 14L30.5 16L32 17.5L34 17.5L34.5 16L32.5 13L30 11.5ZM51 15.5L50.5 17L55 20.5L58 24.5L63 27.5L64.5 27L59.5 22L60 20.5L62 20.5L69 27.5L70 27.5L72.5 24L72 22.5L67 19.5L61 18.5L59 16.5L51 15.5ZM72 15.5L70.5 17L70.5 19L72 20.5L73.5 19L73.5 16L72 15.5ZM57 28.5L55.5 30L64.5 40L69 43.5L69.5 41L68.5 39L57 28.5ZM91 30.5L90.5 33L96 37.5L96.5 34L93 30.5L91 30.5ZM0 32.5L-0.5 37L1 37.5L2.5 35L0 32.5ZM35 33.5L34.5 35L37.5 39L40 40.5L40.5 38L35 33.5ZM45 41.5L43.5 44L48 47.5L48.5 46L45 41.5ZM55 43.5L53.5 46L66 59.5L67.5 57L55 43.5ZM82 45.5L80.5 47L82.5 51L84 52.5L87 52.5L87.5 51L84.5 47L82 45.5ZM196 45.5L195.5 47L199 49.5L199.5 47L196 45.5ZM65 46.5L63.5 48L69 53.5L69.5 51L65 46.5ZM32 47.5L31.5 49L35 51.5L35.5 50L32 47.5ZM155 48.5L154.5 50L158 53.5L159.5 52L155 48.5ZM49 56.5L47.5 58L53 62.5L53.5 61L49 56.5ZM188 63.5L187.5 66L190 67.5L190.5 65L188 63.5ZM138 74.5L136.5 76L138.5 79L143 82.5L143.5 80L138 74.5ZM0 76.5L-0.5 82L2 82.5L3.5 81L0 76.5ZM150 79.5L149.5 81L154 86.5L157.5 86L153 80.5L150 79.5ZM47 83.5L46.5 85L48.5 89L52 91.5L52.5 89L51.5 87L47 83.5ZM113 84.5L112.5 86L118 91.5L118.5 90L117.5 88L113 84.5ZM174 92.5L172.5 94L172.5 96L174.5 97L174.5 100L175.5 101L174 102.5L170 99.5L168.5 101L169.5 104L172 106.5L177 105.5L182 109.5L183.5 107L179.5 104L180.5 96L178 93.5L174 92.5ZM169 107.5L168.5 108L172 111.5L176 112.5L177.5 111L176 109.5L169 107.5ZM167 113.5L166.5 117L175.5 125L174.5 129L176.5 133L174 134.5L170.5 131L172.5 128L172 126.5L169 128.5L166.5 127L166.5 123L161 115.5L159.5 118L161.5 120L160.5 122L161.5 127L159.5 130L165.5 135L164.5 139L166 140.5L167 139.5L175 139.5L179.5 134L183.5 131L183.5 129L181.5 127L180.5 123L175.5 118L175 114.5L167 113.5ZM186 121.5L184.5 123L184.5 126L186 127.5L188 127.5L189.5 126L189.5 123L186 121.5ZM0 155.5L-0.5 161L4.5 167L18 179.5L19.5 178L17.5 175L4.5 162L0 155.5ZM7 157.5L6.5 160L17 171.5L21 173.5L22.5 172L9 157.5L7 157.5ZM198 157.5L196.5 160L199 162.5L199.5 158L198 157.5ZM190 159.5L189.5 162L195 166.5L196.5 164L192 159.5L190 159.5ZM27 160.5L26.5 163L29.5 167L35 172.5L39 173.5L36.5 169L27 160.5ZM44 160.5L43.5 163L48.5 169L50 170.5L52 170.5L52.5 172L62 180.5L59.5 175L57 172.5L54 171.5L46.5 162L44 160.5ZM20 161.5L18.5 163L19.5 165L24 169.5L26 169.5L26.5 167L20 161.5ZM37 161.5L35.5 164L38.5 168L47 174.5L48.5 173L37 161.5ZM131 161.5L130.5 163L134 165.5L134.5 164L131 161.5ZM71 162.5L69.5 164L76 169.5L77.5 168L71 162.5ZM55 163.5L53.5 165L54.5 167L59 169.5L60.5 172L66 176.5L66.5 175L61.5 169L55 163.5ZM63 163.5L62.5 165L66 168.5L67.5 167L63 163.5ZM186 163.5L185.5 167L192 171.5L199 180.5L199.5 175L198 174.5L190 165.5L186 163.5ZM179 164.5L177.5 166L182 171.5L183.5 169L179 164.5ZM0 166.5L-0.5 172L5 174.5L6.5 172L0 166.5ZM164 168.5L163.5 169L167 172.5L168.5 171L167 168.5L164 168.5ZM30 172.5L28.5 174L31 175.5L38.5 185L48 193.5L48.5 192L47.5 190L40.5 184L35.5 176L30 172.5ZM178 173.5L177.5 175L182 178.5L182.5 176L178 173.5ZM186 173.5L185.5 177L187 178.5L190 178.5L191.5 177L190 174.5L186 173.5ZM0 176.5L-0.5 180L9 188.5L10.5 187L6.5 183L4.5 179L2 176.5L0 176.5ZM9 176.5L7.5 179L11 182.5L13 182.5L13.5 180L9 176.5ZM43 179.5L42.5 181L46 184.5L49 185.5L50.5 184L47 180.5L43 179.5ZM29 180.5L28.5 182L29.5 184L40 193.5L40.5 192L32.5 183L29 180.5ZM188 181.5L186.5 184L193.5 191L196.5 196L199 197.5L199.5 184L197 181.5L195 181.5L193.5 183L195.5 186L193 187.5L190.5 185L190.5 183L188 181.5ZM0 184.5L-0.5 189L3 192.5L4.5 191L4.5 189L0 184.5ZM28 188.5L27.5 191L36.5 201L42 205.5L42.5 204L38.5 200L35.5 195L28 188.5ZM61 194.5L59.5 196L63 198.5L63.5 196L61 194.5ZM191 194.5L190.5 196L196 201.5L198 202.5L199.5 202L193 194.5L191 194.5ZM3 198.5L2.5 200L6.5 204L7.5 207L12 209.5L12.5 207L3 198.5ZM0 203.5L-0.5 206L3 209.5L4.5 208L0 203.5ZM63 209.5L62.5 212L65.5 214L63.5 218L64.5 219L64.5 222L66 222.5L68.5 220L68.5 214L65 209.5L63 209.5ZM50 217.5L47 222.5L52.5 221L50 217.5ZM35 224.5L34.5 226L38 229.5L38.5 228L37.5 226L35 224.5ZM70 229.5L69.5 234L68.5 235L72 235.5L72.5 233L71.5 230L70 229.5ZM0 231.5L-0.5 235L1 235.5L4.5 241L7 242.5L8.5 240L0 231.5ZM42 232.5L40.5 234L45 237.5L45.5 236L42 232.5ZM80 234.5L79.5 237L82 238.5L82.5 236L80 234.5ZM51 235.5L49.5 237L50.5 239L49.5 244L57.5 253L60 254.5L60.5 252L56.5 247L61 246.5L61.5 245L54 243.5L52.5 242L52.5 240L54.5 237L53 235.5L51 235.5ZM4 247.5L3.5 249L6 251.5L8.5 251L6 247.5L4 247.5ZM47 247.5L45.5 249L49 252.5L50.5 250L47 247.5ZM74 250.5L73.5 252L79 257.5L80.5 256L79.5 254L74 250.5ZM0 261.5L-0.5 263L4 268.5L5.5 267L4.5 264L2 261.5L0 261.5ZM31 267.5L29.5 269L32.5 273L38 276.5L38.5 275L35.5 273L35.5 271L31 267.5ZM9 270.5L7.5 273L16 280.5L17.5 279L9 270.5ZM0 271.5L-0.5 273L5 277.5L5.5 275L3 272.5L0 271.5ZM19 271.5L17.5 273L19.5 276L27.5 284L28.5 287L33.5 291L34.5 294L37.5 297L37.5 299L42 299.5L42.5 299L31.5 286L30.5 283L26 279.5L19 271.5ZM20 291.5L18.5 294L24 299.5L27 299.5L27.5 299L20 291.5ZM27 292.5L26.5 294L29 297.5L32 299.5L34.5 299L29 292.5L27 292.5Z" fill="#6cc2fa" fill-rule="evenodd"/><path d="M76 -0.5L74.5 1L74.5 14L73.5 15L72.5 22L77 25.5L81 25.5L83.5 24L84.5 16L87 12.5L89.5 12L86.5 6L88.5 0L76 -0.5ZM52 202.5L50.5 204L50.5 206L55 206.5L56 207.5L57.5 203L52 202.5ZM51 209.5L44.5 214L46 218.5L49 218.5L52 215.5L56 215.5L58 217.5L59.5 216L57 212.5L54 212.5L51 209.5ZM50 221.5L49 222.5L46 222.5L44.5 224L45.5 225L45.5 229L48 231.5L52 225.5L54 226.5L56 225.5L63 226.5L64.5 225L64 223.5L61 223.5L60 222.5L50 221.5ZM58 228.5L56.5 230L57.5 234L59 235.5L63 234.5L63.5 232L60 228.5L58 228.5ZM68 235.5L67 236.5L61 236.5L59 237.5L57.5 239L59 241.5L70 241.5L71 242.5L79 241.5L82 242.5L83.5 241L82 238.5L76 238.5L73 235.5L68 235.5Z" fill="#e566b2" fill-rule="evenodd"/><path d="M74 -0.5L73 10.5L71.5 10L71.5 4L69 3.5L68 4.5L59 5.5L56 8.5L53 9.5L49 9.5L46.5 11L46.5 13L50 15.5L59 16.5L61 18.5L67 19.5L72 22.5L72.5 21L70.5 19L70.5 17L74.5 14L74.5 1L75.5 0L74 -0.5ZM91 -0.5L90.5 4L92 4.5L92.5 0L91 -0.5ZM90 7.5L89.5 12L88.5 13L89 18.5L90.5 18L90.5 12L91.5 11L91.5 8L90 7.5ZM173 96.5L172.5 101L174 102.5L175.5 101L174.5 100L174.5 97L173 96.5ZM168 101.5L165.5 106L167 108.5L170 107.5L177 110.5L181.5 109L177 105.5L172 106.5L169.5 104L169.5 102L168 101.5ZM174 123.5L170.5 131L175 134.5L176.5 132L174.5 129L175.5 125L174 123.5ZM185 126.5L183.5 129L184 130.5L186 130.5L187.5 129L187.5 128L185 126.5ZM51 206.5L46.5 209L48 211.5L51 209.5L55 209.5L56.5 208L55 206.5L51 206.5ZM51 217.5L50.5 219L53 221.5L55.5 219L54 217.5L51 217.5ZM46 218.5L44.5 221L45 223.5L48.5 220L48 218.5L46 218.5Z" fill="#edf9fa" fill-rule="evenodd"/></svg>